<?xml version="1.0" standalone="no"?>
<!DOCTYPE svg PUBLIC "-//W3C//DTD SVG 1.1//EN" "http://www.w3.org/Graphics/SVG/1.1/DTD/svg11.dtd" >
<svg xmlns="http://www.w3.org/2000/svg">
<metadata></metadata>
<defs>
<font id="font_awesomeregular" horiz-adv-x="2048" >
<font-face units-per-em="2048" ascent="1741" descent="-307" />
<missing-glyph horiz-adv-x="500" />
<glyph horiz-adv-x="0" />
<glyph unicode="&#xd;" horiz-adv-x="681" />
<glyph unicode="!" horiz-adv-x="2031" d="M-4 715h4q0 440 289 729t729 289t729 -289t289 -729q0 -373 -211 -641.5t-574 -349.5q-18 35 -69.5 106.5t-71.5 114.5q131 -53 176 -54q33 0 33 103q0 190 -35 190q-51 0 -199 -112q0 29 -30 24h-11q-53 141 -53 252q0 31 6 62q188 -92 303 -93q63 0 192.5 37t129.5 80 q0 27 -35 27q-53 0 -153.5 -14.5t-153.5 -14.5q-55 0 -122.5 28.5t-67.5 78.5q0 10 4 16t10 6h12t16.5 -2t18.5 -2q18 0 53 -6t51 -6q63 0 260 75.5t197 116.5q0 25 -39 35t-71 10q-29 0 -86.5 -16t-125 -36.5t-90.5 -29.5q8 41 9 66q0 96 -51.5 225t-118.5 191 q-55 49 -148 67q-57 74 -180 135.5t-217 61.5q-18 0 -57 -8t-50 -11l-45 -63l13 -2q14 0 44.5 4t45.5 4q70 0 160 -29q-57 -29 -101 -38q-4 -2 -26.5 -6.5t-39 -6.5t-28.5 -12t-14 -25q115 12 172 13q78 0 123 -15q-158 -18 -244 -108t-86 -248q0 -55 8 -102 q39 -246 149 -734q68 -315 76 -348l2 -8q-328 102 -514 380.5t-186 631.5zM578 967l2 2q0 -12 6 -25q-2 33 37 57.5t73 24.5q16 0 41 -10q-20 27 -59 26q-35 0 -67.5 -20.5t-32.5 -54.5zM647 815q0 27 22.5 49.5t49 22.5t49.5 -22.5t23 -49.5t-23 -49.5t-49.5 -22.5 t-49 22.5t-22.5 49.5zM729 838q0 -16 18.5 -16.5t18.5 16.5q0 18 -18.5 18t-18.5 -18zM1073 1016q16 27 76 26q27 0 68 -20q-20 45 -72 45q-64 0 -72 -51zM1120 856q0 25 18.5 43.5t41.5 18.5q25 0 43 -18.5t18 -43.5q0 -23 -18.5 -41t-42.5 -18q-23 0 -41.5 18t-18.5 41z M1192 877q0 -16 14 -17q16 0 17 17q0 14 -17 14q-14 0 -14 -14z" />
<glyph unicode="&#x22;" horiz-adv-x="2650" d="M0 885q0 215 108.5 385t280.5 270t370.5 151.5t399.5 51.5q59 0 88 -2q236 -12 463 -84q178 -57 340 -153.5t301 -223.5t221 -301t84 -361q0 -27 -2 -38q-23 -311 -248 -524.5t-551 -301.5q-219 -61 -469 -61h-16q-412 0 -645 108q-12 4 -14 13q0 4 6 4q2 0 8 -2t8 -2 q102 -25 182 -25q49 0 96.5 10.5t90.5 41t43 81.5q0 25 -12 49q-18 33 -121 70t-234 69.5t-155 41.5q-164 53 -285 135q0 2 8 20.5t12 30.5t14.5 24.5t18.5 12.5h367q18 0 34.5 -45t43 -90t73.5 -45q37 0 63.5 24.5t26.5 61.5q0 23 -172 407.5t-217 472.5q-12 31 -32 31 q-16 0 -27 -18l-6 -13q-16 -31 -107 -233l-219 -488l-14 -30q-195 223 -195 479zM446 545q0 20 111 264l10 6q12 0 67.5 -131t55.5 -143q0 -8 -10 -9h-221q-10 0 -10 11zM1075 293q0 -92 96.5 -92t96.5 92v794q0 92 -96.5 92.5t-96.5 -92.5v-794zM1454 293q0 -92 96.5 -92 t96.5 92v371l188 -379q27 -59 84 -60q66 0 94 60l187 379v-371q0 -92 96 -92q98 0 98 92v794q0 92 -96 93q-72 0 -96 -60l-283 -618l-272 618q-29 59 -99 60q-94 0 -94 -93v-794z" />
<glyph unicode="#" horiz-adv-x="2066" d="M0 -307v1026h1026v-1026h-1026zM1042 715v1026h1024v-1026h-1024z" />
<glyph unicode="$" horiz-adv-x="1994" d="M0 -84l397 1825h897q102 0 198.5 -37t174.5 -115t108.5 -194.5t-1.5 -276.5q-59 -279 -264 -438.5t-480 -159.5h-375l-129 -606h-526v2zM205 -307h526l129 604h377q274 0 477 159.5t264 438.5q57 276 -88 448q68 -152 25 -348q-59 -279 -264 -438.5t-480 -159.5h-374 l-129 -604h-443zM731 870h170l86 375h256q4 0 35 -6q-16 59 -65.5 96t-114.5 37h-256zM987 872q98 4 184 76t109 172q0 4 2 12.5t2 12.5h-233z" />
<glyph unicode="%" horiz-adv-x="1964" d="M0 -76v1053q0 367 174 569.5t533 202.5h1122l-108.5 -108.5t-205 -207t-223 -225t-194.5 -190.5t-86 -76q-31 0 -31 33v319h-98q-121 0 -195 -14t-129 -53t-79.5 -117t-24.5 -197v-536zM137 -315q10 10 108.5 108t205 207t223.5 225.5t194.5 190t85.5 76.5q31 0 31 -33 v-320h98q238 0 332 74t94 307v537l459 456v-1052q0 -367 -174 -569.5t-532 -202.5h-1123z" />
<glyph unicode="&#x26;" horiz-adv-x="1884" d="M-2 412h2v551q0 53 39 92t90 39q53 0 92 -39t39 -92v-551q0 -53 -39 -92t-92 -39t-92 38.5t-39 92.5zM350 207h4v856h1176v-856q0 -53 -39 -92t-92 -39h-918q-53 0 -92 39t-39 92zM354 1159h1176q0 236 -174 387.5t-414 151.5t-414 -151.5t-174 -387.5zM561 1806 q0 16 14 17q6 0 15 -4l100 -183l-31 -16q-98 180 -98 186zM590 154h2q0 55 39 92t96 37q51 0 90 -39t39 -90v-414q0 -57 -39 -94t-96 -37q-53 0 -92 39t-39 92v414zM600 1421l2 2q0 33 24.5 57.5t57.5 24.5t57.5 -24.5t24.5 -57.5q0 -35 -24.5 -59.5t-59.5 -24.5 q-33 0 -57.5 25t-24.5 57zM1028 154q0 55 41 92t96 37q53 0 92 -39t39 -92v-414q0 -57 -38.5 -94t-96.5 -37q-53 0 -92 39t-39 92v414zM1120 1421v2q0 33 24.5 57.5t57.5 24.5t57.5 -24.5t24.5 -57.5q0 -35 -24.5 -59.5t-57.5 -24.5t-57.5 25t-24.5 57zM1194 1636 q4 6 28.5 59.5t49 90.5t39 39t14.5 -19v-4l-98 -182zM1626 412v549q0 53 39 92t92 39t92 -39t39 -92v-549q0 -53 -39 -92t-92 -39t-92 38.5t-37 92.5h-2z" />
<glyph unicode="'" horiz-adv-x="1687" d="M0 719q0 219 59 414q57 188 170 325q115 137 277 209q166 74 364 74q262 0 445 -125q184 -121 278 -322q94 -195 95 -401q0 -190 -96.5 -245.5t-270.5 -55.5h-866q0 -174 61 -303q59 -133 156 -197q102 -68 217 -67q84 0 145 20q63 20 127 68q63 45 114.5 96t135.5 141 q31 33 96 33q70 0 111 -43q43 -43 43 -119q0 -66 -47 -160q-43 -88 -144 -174q-94 -84 -237 -139q-145 -55 -330 -55q-428 0 -665 276q-238 279 -238 750zM455 879h802q-14 256 -122 385q-104 127 -279 127q-168 0 -272 -129q-106 -129 -129 -383z" />
<glyph unicode="*" d="M-2 1251l2 2q0 51 33 94.5t84 55.5l403 96q-129 -147 -129 -344q0 -379 518 -580q57 -23 110.5 -51t113 -69t94.5 -96.5t37 -114.5q0 -88 -72 -137.5t-164 -49.5q-119 0 -248 47.5t-215 124.5l-162 -366q115 -63 295 -125q-20 -4 -65 -18.5t-80 -20.5t-66 -8 q-51 0 -94 32.5t-55 83.5l-336 1407q-4 25 -4 37zM858 1159q0 78 71.5 121t155.5 43q100 0 225.5 -37t180.5 -96l125 348q-184 98 -381 129q4 0 92 24.5t147.5 37t88.5 12.5q51 0 94 -33t55 -84l336 -1407q4 -25 4 -37q0 -51 -32.5 -94t-84.5 -55l-297 -70q96 143 97 311 q0 227 -145.5 375t-379.5 225q-350 119 -350 287h-2z" />
<glyph unicode="+" horiz-adv-x="2424" d="M0 66q0 178 182.5 317t440.5 139h110q-86 82 -86 176q0 59 33 119q-20 -2 -59 -2q-213 0 -348.5 133t-135.5 328q0 186 168 325.5t383 139.5h635l-141 -103h-201q96 -37 151.5 -139t55.5 -227q0 -190 -180 -332q-76 -59 -98.5 -94t-22.5 -86q0 -39 55 -98.5t111 -100.5 q125 -88 174 -180t49 -231q0 -184 -168 -321.5t-455 -137.5q-272 0 -460.5 102.5t-188.5 269.5zM229 133q0 -141 121 -241.5t299 -100.5q244 0 354.5 90t110.5 240q0 39 -8 65q-6 23 -14.5 43.5t-24.5 39t-28.5 32.5t-41 34.5t-43 31t-51.5 37t-53 36.5q-80 25 -158 25 q-184 2 -323.5 -96.5t-139.5 -233.5v-2zM365 1278q23 -162 125 -278.5t225 -118.5q121 -4 192.5 106.5t51 272t-123 274.5t-225.5 117t-194 -104.5t-51 -268.5zM1501 1229v102h410v410h102v-410h412v-102h-412v-412h-102v412h-410z" />
<glyph unicode="," horiz-adv-x="2265" d="M-4 1386h4v44l4 4h510l4 -4v-41q0 -16 -20 -17l-54 -2q-68 -2 -67 -41q0 -27 14 -57q102 -250 455 -991l12 -2l227 452q-27 61 -45 100l-155 308l-41 82q-53 104 -69.5 124.5t-67.5 28.5q-29 4 -29 15v43l6 4h403l11 -2v-43q0 -16 -21 -17l-30 -4q-27 -4 -39.5 -10 t-12.5 -24.5t8.5 -37t30.5 -63.5l150 -307l166 332q33 66 10 88q-12 16 -76 22l-18 2q-8 0 -15 6q-6 2 -6 13v39l6 4q117 2 381 0l4 -4v-41q0 -16 -18 -17q-45 -2 -63.5 -10t-34.5 -33q-47 -70 -62 -98l-215 -402l-6 -14l262 -536l17 -7l413 985q25 57 -6 84q-27 25 -80 27 l-39 2q-6 0 -12 6q-8 4 -8 13v41l6 4h469l4 -4v-41q0 -14 -18 -19q-94 -4 -136 -39q-41 -33 -69 -100l-512 -1161q-20 -47 -47 -63.5t-49.5 2t-47.5 63.5q-78 154 -249 538q-215 -442 -269 -540q-84 -145 -145 -2q-66 154 -266.5 583.5t-266.5 587.5q-33 86 -57 107 q-23 20 -106 26q-29 4 -29 14z" />
<glyph unicode="-" horiz-adv-x="1925" d="M0 1513q-2 23 12.5 43.5t28.5 35t49 32.5t55.5 26.5t67.5 29t72 30.5q111 45 198.5 33t110.5 -72q51 -137 211 -655t237 -742q549 180 668 215q33 12 78 8.5t67 -46.5q47 -96 68 -203t2 -154q-39 -31 -123 -65.5t-155.5 -59t-184 -59.5t-151.5 -47q-20 -6 -77.5 -26.5 t-109 -39t-119 -39t-125 -37t-110.5 -24.5t-92 -8t-53 18q-37 37 -66 106.5t-59.5 178t-38.5 135.5q-86 256 -231.5 694.5t-213.5 640.5q-12 27 -14 49z" />
<glyph unicode="." horiz-adv-x="1589" d="M0 -209v1587h188q0 59 2.5 80t8.5 66t24.5 61.5t51 34.5t84 16t84 -16t49 -32.5t24.5 -63.5t8 -66v-80h113v80l8 66l25 63l49 33l84 16q37 0 63.5 -8t45 -18.5t30.5 -35t18.5 -38.5t8.5 -51t4 -51v-58h110v58l4 51l9 51l18 39l31 35l45 18l63 8q49 0 84 -16t49.5 -32.5 t24.5 -63.5t8 -66v-80h189v-1587h-1590h-18zM133 -76h285v230h-285v-230zM133 199h285v243h-285v-243zM133 487h285v267h-285v-267zM133 797h285v229h-285v-229zM279 1212q0 -68 75.5 -67.5t75.5 67.5v267q0 68 -75.5 67.5t-75.5 -67.5v-267zM461 -76h311v230h-311v-230z M461 199h311v243h-311v-243zM461 487h311v267h-311v-267zM461 797h311v229h-311v-229zM719 1212q0 -68 76 -67q78 0 77 67v267q0 68 -77 67q-76 0 -76 -67v-267zM815 -76h311v230h-311v-230zM815 199h311v243h-311v-243zM815 487h311v267h-311v-267zM815 797h311v229h-311 v-229zM1159 1212q0 -68 78 -67q76 0 76 67v267q0 68 -76 67q-78 0 -78 -67v-267zM1169 -76h287v230h-287v-230zM1169 199h287v243h-287v-243zM1169 487h287v267h-287v-267zM1169 797h287v229h-287v-229z" />
<glyph unicode="/" horiz-adv-x="2680" d="M0 293v371h459v-367q0 -57 41 -100t100 -43t102 41t43 100v866q0 240 178.5 410t422 170t422 -170t178.5 -412v-188l-275 -82l-182 86v164q0 59 -41 100t-100.5 41t-102.5 -41t-43 -100v-854q0 -246 -176 -420t-422 -174q-248 0 -424 176t-176 426h-4zM1481 287h2v375 l182 -87l274 82v-376q0 -59 41 -102.5t100.5 -43.5t100.5 43t41 103v383h459v-371q0 -248 -176 -424t-424 -176t-424 174t-176 420z" />
<glyph unicode="0" horiz-adv-x="2584" d="M0 483h244q10 -82 61 -131t133 -49q98 0 157.5 67.5t59.5 168.5q0 98 -57 161.5t-154 63.5q-78 0 -133 -51t-104 -51q-109 0 -164 4q18 106 59 329.5t60 337.5h676v-200h-498q-29 -145 -49 -275h6q35 43 104.5 65.5t135.5 22.5q231 0 327 -211q49 123 147.5 192.5 t227.5 69.5q100 0 186 -41t135.5 -86t129.5 -135l10 -10t8 -10l10 -10q72 82 102.5 114.5t94 83.5t127 71.5t143.5 20.5q184 0 297 -125t113 -311q0 -190 -112.5 -319t-301.5 -129q-238 0 -463 268q-14 -14 -79.5 -80t-88 -82t-76 -53t-106.5 -47.5t-119 -12.5 q-129 0 -227 68t-152 188q-127 -262 -415 -262q-195 0 -322 98.5t-127 284.5zM1055 545q0 -86 53 -139.5t139 -53.5q154 0 318 195q-70 72 -98.5 100.5t-98.5 67.5t-131 41q-80 0 -131 -63.5t-51 -145.5v-2zM1851 543v2q55 -59 94.5 -94t100.5 -68t127 -33q88 0 139 57.5 t51 145.5q0 86 -53 143.5t-139 57.5q-51 0 -100.5 -24.5t-76 -45t-77.5 -74t-66 -67.5z" />
<glyph unicode="1" horiz-adv-x="1585" d="M-2 1010l2 -4q0 129 55.5 256t155.5 235.5t266 176t367 67.5q326 0 534.5 -201t208.5 -473q0 -350 -178 -579.5t-459 -229.5q-92 0 -174 43t-114 105l-82 -324q-10 -39 -26.5 -80t-37 -78t-39 -69.5t-39 -61.5t-35 -49t-26.5 -35l-12 -16q-6 -8 -16.5 -6t-12.5 12 q0 2 -4 28.5t-6 57.5t-6.5 78t-2.5 92t6.5 98t16.5 99q23 96 152 641q-16 33 -26.5 80t-10.5 75l-2 31q0 131 67.5 219t161.5 88q76 0 119 -51t43 -127q0 -47 -18.5 -116.5t-47 -158t-41.5 -145.5q-20 -92 37 -159.5t152 -67.5q162 0 268 184t106 445q0 199 -129 325.5 t-360 126.5q-258 0 -420 -166t-162 -397q0 -137 78 -231q27 -31 17 -66q-4 -10 -12.5 -47t-12.5 -47q-4 -23 -20.5 -31t-36.5 2q-121 49 -182.5 170t-61.5 281z" />
<glyph unicode="2" horiz-adv-x="2050" d="M32.5 964.5q67.5 270.5 258 467t453 272.5t532.5 8.5t466.5 -258t272.5 -453t8.5 -532.5t-258 -467t-452.5 -272.5t-532.5 -8t-467 258t-272.5 452.5t-8.5 532.5zM500 410l147 -37q14 -2 41 -10.5t39 -10.5l-47 -186l113 -29l45 185q12 -4 42.5 -12.5t47.5 -12.5 l-45 -184l112 -27l45 186q98 -16 176 -16t135.5 43t88.5 125q66 184 -105 272q123 27 144 164q27 176 -226 258l47 187l-112 26l-45 -180q-16 4 -47 12t-43 13l45 180l-113 28l-45 -184q-31 4 -72 17l-155 38l-29 -120l80 -19q57 -14 53 -65l-53 -211q4 0 12 -4q-2 2 -6 2 t-6 2l-74 -295q-10 -37 -51 -27l-82 21zM872 457h2l62 248q2 0 41 -8.5t57.5 -14.5t57 -18.5t59 -26.5t43.5 -34.5t31 -45.5t-2 -57q-6 -23 -18.5 -39.5t-31 -24.5t-39 -14t-47 -6t-49 4t-49 8t-45 10t-41 10.5t-31.5 8.5zM963 809l2 8l55 225q6 -2 26.5 -6t35 -8t37 -10 t39 -14.5t36.5 -18.5t30.5 -22.5t25 -28.5t12.5 -34.5t-5 -41.5q-6 -27 -22 -45t-38.5 -24.5t-47.5 -10.5t-55.5 2t-49 8.5t-47 12.5t-34.5 8z" />
<glyph unicode="3" horiz-adv-x="2304" d="M0 1325h158l219 -743l147 499l-71 244h157l219 -743l220 743h593v-74l-223 -385q119 -41 176 -137q61 -102 62 -233q0 -168 -88 -281t-230 -113q-104 0 -184 68q-80 70 -115 182l123 51q27 -70 72 -110q41 -39 104.5 -39t106.5 70q45 70 45 172q0 106 -47 170 q-55 70 -170 69h-62v74l211 365h-254l-14 -25l-311 -1047h-15l-225 758l-227 -758h-15zM1675 471l37 -102q31 -68 68 -119q86 -119 192 -137q92 -18 180 37q39 25 72 63q41 41 57 74q8 14 23 41l-23 121q-16 -33 -32.5 -57.5t-24.5 -35.5l-8 -8q-70 -76 -125 -100 q-68 -31 -139 -23q-55 4 -123 49q-74 63 -88 88q-27 37 -66 109zM1731 870q0 172 67 299q33 61 78 98.5t88 41.5q72 8 143 -54q37 -31 76 -102l90 178l25 -155l-90 -175q-16 33 -39 62t-37 41l-16 12q-63 45 -131 31q-49 -10 -98.5 -61.5t-71.5 -120.5q-39 -113 -39 -217 q-2 -82 10 -130q-25 45 -39 109t-14 104z" />
<glyph unicode="4" horiz-adv-x="2394" d="M0 840q0 215 157.5 368.5t379.5 153.5q174 0 313 -98.5t194 -253.5l136 131l323 -312l895 914v-830l-547 -421l70 -74l-743 -723l-648 629q-219 4 -372.5 155.5t-153.5 362.5zM74 840h2q0 -184 133 -313.5t321 -129.5q68 0 134 19l450 -400l1198 942l2 619l-1184 -1221 l-184 299q41 88 41 185q0 182 -135 313t-323.5 131t-321.5 -131t-133 -313zM174 836q0 143 102.5 245.5t246 102.5t245.5 -100.5t102 -245.5q0 -143 -102 -246t-245.5 -103t-246 102.5t-102.5 246.5v-2z" />
<glyph unicode="5" horiz-adv-x="1431" d="M0 1329h1432l-136 -1454l-581 -166l-582 166zM133 1452v272h92v-90h82v90h90v-272h-90v90h-82v-90h-92zM266 1032l49 -545l2 5h615l-21 -232l-196 -55l-199 57l-12 139h-180l24 -278l367 -105l366 105l52 547h-654l-16 182h686l16 180h-899zM438 1632v92h250v-92h-80 v-180h-90v180h-80zM727 1452v272h96l56 -94l57 94h96v-272h-88v139l-65 -102v2l-62 96v-135h-90zM1079 1452v272h90v-180h127v-92h-217z" />
<glyph unicode="6" horiz-adv-x="1931" d="M2 -4q-6 74 14 123q80 287 189 489q233 442 641 721v29q-121 -51 -244 -135t-209 -166t-155.5 -160t-104.5 -123l-35 -47q-4 121 33 235.5t92.5 192.5t112.5 137.5t96 87.5l39 27q8 4 22.5 12t57.5 28.5t90 39t112.5 35t131 24.5t143.5 4t152 -24q131 96 264 149.5 t201 59.5l67 6q102 10 159.5 -35t64 -112.5t-2 -139.5t-24.5 -123l-19 -49l-10 10q43 117 43 193t-37 116.5t-75.5 59t-75.5 20.5l-33 5q-8 0 -24.5 -2.5t-65.5 -10.5t-100.5 -26.5t-125 -51t-141.5 -84.5q141 -23 252 -86t176.5 -145t112.5 -174t63.5 -182t26.5 -160 t8 -115l-2 -45h-1141q-6 -86 23 -149.5t69.5 -94t84 -47t73.5 -18.5l31 -2q8 0 24.5 2t55.5 12t71.5 28.5t63.5 59.5t45 97h598q-33 -121 -96.5 -219.5t-139 -160t-159.5 -104.5t-162 -65.5t-139.5 -32.5t-100.5 -14h-39q-160 0 -219 12q-123 -96 -260 -151.5t-213 -61.5 l-73 -6q-94 0 -160 49t-86.5 114.5t-26.5 139.5zM156 10l2 -2q-2 -49 6 -88t16 -59l8 -19q8 -6 22.5 -16t70 -28.5t117 -16.5t168 34.5t220.5 102.5q-16 4 -44.5 12.5t-104.5 37t-141.5 65.5t-137 98.5t-110.5 132.5q-45 -70 -67.5 -137.5t-24.5 -116.5zM733 877h4h543 q2 74 -24.5 129t-65.5 79.5t-80 39t-68 16.5l-28 2q-12 0 -30.5 -2t-68 -16.5t-86 -39t-67.5 -80t-29 -128.5z" />
<glyph unicode="7" horiz-adv-x="1638" d="M2 1217l2 -3q4 35 31 66l246 246q29 25 43 -8l198 -373q16 -33 -10 -64l-90 -90q-25 -25 -29 -63q0 -61 63.5 -157.5t125.5 -164.5l63 -65q29 -29 74 -72t149.5 -110.5t163.5 -69.5q39 0 66 26l106 107q29 29 62 8l358 -211q14 -8 16 -22.5t-8 -24.5l-246 -246 q-31 -27 -65 -30q-100 -14 -227 28.5t-233.5 112t-201 141.5t-147.5 123l-53 51q-20 20 -55 57t-119 141.5t-145.5 207t-106.5 229.5t-31 230z" />
<glyph unicode="8" d="M0 716.5q0 278.5 137 514t372.5 373t514.5 137.5t514.5 -137.5t372.5 -373t137 -514t-137 -514t-372.5 -372.5t-514.5 -137t-514.5 137t-372.5 372.5t-137 514zM262 715l2 2q0 -133 74 -158q10 -4 35 -8q86 -2 174 82q84 74 119 184q51 158 20 410q-4 25 -4 35 q-6 12 0 18q2 6 27 -2q78 -20 159 -59q94 -43 209 -144q92 -80 178 -182q68 -80 164 -213q84 -117 180 -158q59 -20 98.5 -14t60 41t30.5 76t10 92q0 98 -24 196q-6 25 -17 58q-29 88 -84 172q-106 162 -278 254t-365 92q-135 0 -256 -45q-164 -57 -289 -182t-182 -291 q-2 -10 -8 -30.5t-10 -29.5q-25 -102 -23 -196z" />
<glyph unicode="9" horiz-adv-x="2498" d="M0 1454q-2 10 6 20.5t19 12.5q23 4 63.5 14t56.5 15q0 35 2.5 102.5t2.5 99.5q4 25 26 25q29 0 29 -29q-4 -123 -4 -186q23 4 72 14t71 17q37 8 112.5 20t114.5 20q823 141 1627 148q12 0 20 -10.5t6 -22.5q0 -23 -4 -67.5t-4 -67.5q86 -6 262 -23q10 0 18.5 -10t6.5 -20 q-47 -281 -139.5 -844t-139.5 -846q102 -16 156 -24q16 -2 22 -16.5t-2 -27t-20 -12.5h-6q-27 4 -80 14.5t-80 14.5q-2 -25 -10 -64q-4 -18 -21 -22q-2 -2 -8 -2h-8q-608 154 -1229 240q-205 4 -305 4q-113 0 -338 -4v-3q2 -2 2 -4q2 -12 -8 -22t-23 -10q-23 0 -24 22 q0 10 -4.5 32.5t-6.5 35.5h-26q-16 0 -22.5 14t2 28.5t24.5 14.5h16l-12 111q-12 82 -51 399t-74 516t-88 391v-8zM61 1438q43 -160 89 -412q-6 143 -7 428q-33 -4 -82 -16zM199 1251q2 -395 43 -868q6 -82 22 -223q2 -18 6 -39t8.5 -45.5t6.5 -38.5q137 -6 393 -26.5 t373 -26.5q725 -41 989 -72q23 328 67.5 932t61.5 842q-958 -8 -1966 -220q-2 -109 0 -215h-4zM387 918q0 -139 88 -227.5t223 -88.5q141 0 224 88h4q-27 -143 -133 -227q-84 -68 -207 -78q-82 -8 -107 -4v-154q72 0 117 4q219 16 350 140q178 168 178 477q0 193 -96 315.5 t-270 122.5q-160 0 -264.5 -108.5t-104.5 -257.5zM580 930q0 92 47 151.5t121 59.5h2q88 0 133 -74t43 -186q0 -33 -11 -54q-53 -86 -165 -86q-78 0 -123 53.5t-45 135.5h-2zM762 -47l196 -21l764 -82q287 -61 428 -98l7 37q-113 18 -338 51q-510 72 -1057 113zM1153 920 l2 -2q0 -139 88 -227.5t221 -88.5q141 0 226 88h2q-27 -143 -131 -227q-86 -68 -209 -78q-82 -8 -107 -4v-154q72 0 117 4q219 16 350 140q178 164 178 477q0 193 -96 315.5t-268 122.5q-160 0 -266.5 -108.5t-106.5 -257.5zM1348 930q0 92 47 151.5t118 59.5h3 q88 0 133 -74t43 -186q0 -33 -11 -54q-53 -86 -165 -86q-78 0 -123 53.5t-45 135.5zM2079 -143q57 -8 88 -13q41 246 133 803t141 854q-27 2 -74 6t-85.5 8.5t-73.5 6.5q-12 -174 -55.5 -751.5t-63.5 -893.5q0 -10 -8 -18q-2 0 -2 -2z" />
<glyph unicode=":" horiz-adv-x="1708" d="M0 -307l854 2048l854 -2048h-756v276l348 174l-26 113l-322 -162v137l201 107l-29 117l-172 -93v179h-188v-322l-176 121l-33 -131l209 -143v-373h-764z" />
<glyph unicode=";" horiz-adv-x="2297" d="M0 311v762q0 27 27 27h360v264q0 29 27 29h200v-1053q0 -29 -24 -29h-590zM223 481h137q27 0 27 29v422h-137q-27 0 -27 -29v-422zM684 311v762q0 27 27 27h200v-760q0 -29 -24 -29h-203zM684 1223v141q0 29 25 29h202v-142q0 -29 -24 -28h-203zM989 41l2 141q0 29 25 29 h360v100h-387v762q0 27 27 27h590v-1032q0 -27 -27 -27h-590zM1214 481h138q25 0 24 29v422h-137q-25 0 -25 -29v-422zM1683 41v141q0 29 27 29h361v100h-388v762q0 27 27 27h588v-1032q0 -27 -25 -27h-590zM1907 481h137q27 0 27 29v422h-138q-27 0 -26 -29v-422z" />
<glyph unicode="=" d="M-2 715l2 2q0 279 137 514t372.5 372.5t514.5 137.5t514.5 -137.5t372.5 -373t137 -513.5q0 -207 -78 -393.5t-219 -327.5q-123 150 -299 233.5t-375 83.5q-219 0 -407.5 -102t-309.5 -277q-170 145 -266 348t-96 433zM336 1012q0 -35 24.5 -61.5t61.5 -26.5q12 0 18 2 q295 119 610.5 118.5t610.5 -118.5q2 0 8 -2t10 -2q35 0 61.5 26.5t26.5 61.5q0 51 -47 75q-326 129 -667 129q-348 0 -674 -131q-41 -27 -41 -73zM430 707l12 -33q16 -27 47 -27q6 0 19 4q260 113 543 113q285 0 546 -115q8 -4 15 -4q31 0 47 27l10 35q0 27 -20 43 q-283 127 -598 127q-313 0 -600 -127q-21 -20 -21 -43zM528 412q20 -51 64 -33q221 104 459 104q229 0 448 -98q49 -27 72 25q10 27 0 47t-29 30q-217 109 -491 109q-262 0 -500 -113q-39 -20 -23 -71zM653 -238q76 98 188.5 155.5t239.5 57.5q233 0 396 -176 q-213 -106 -451 -106q-193 0 -371 69h-2z" />
<glyph unicode="&#x3e;" horiz-adv-x="2467" d="M0 723q0 127 102.5 217t231.5 90q127 0 215 -74h10q274 168 686 168l10 9l144 546l495 -73q0 -2 4 -2q2 0 0 2q4 2 25 32.5t31 38.5q70 66 168 66q100 0 169.5 -67.5t69.5 -168t-69.5 -172t-169.5 -71.5q-117 0 -178.5 79.5t-61.5 198.5q-4 -2 -200.5 26.5t-225.5 35.5 h-6q-4 -4 -35 -111t-61.5 -223.5t-36.5 -130.5v-6l10 -9q147 0 303 -43t268 -118l7 -5q2 2 4 2.5t4 2.5q51 37 73.5 51t61.5 26.5t88 12.5q139 0 237.5 -98.5t98.5 -239.5q0 -96 -55.5 -176t-143.5 -123q0 -399 -532 -621q-84 -37 -115 -47q-66 -20 -186.5 -38.5 t-190.5 -18.5q-246 0 -473 71q-4 4 -147 78q-195 104 -313.5 237.5t-118.5 319.5h-11q-68 35 -120 103l-19 24q-31 55 -39 94t-8 105zM68 696l2 2q0 -135 116 -229q10 121 98.5 237.5t207.5 206.5q-76 53 -168 54q-100 0 -178 -84t-78 -187zM276 401l3 -2q0 -111 63.5 -213 t163.5 -175.5t210.5 -123t215.5 -69.5q154 -29 299 -29q252 0 477 82t379 252h-6q61 78 87.5 141.5t26.5 149.5q0 111 -55 211t-143 171.5t-188.5 125t-204.5 79.5q-174 47 -371 48q-152 0 -311.5 -37t-307 -111t-244 -205t-94.5 -295zM659 549q0 76 47.5 123t123 47 t127 -47t51.5 -123q0 -74 -53.5 -123t-127 -49t-121 49t-47.5 123zM733 213h90q51 -92 164 -141t230 -49q119 0 225 49t172 141h84q-51 -127 -190.5 -196.5t-290.5 -69.5q-147 0 -291 71.5t-193 196.5v-2zM1419 551l2 -2q0 78 47.5 123t124.5 45q70 0 119 -49.5t49 -119 t-49 -120.5t-119 -51q-76 0 -125 49t-49 125zM1942 1507h2q0 -72 51 -123t123 -51q74 0 121 51.5t47 124.5q0 70 -49.5 119t-119 49t-122.5 -51t-53 -119zM1970 930l2 2q113 -74 195 -190.5t114 -245.5q121 88 121 196q0 119 -73.5 205t-190.5 86q-92 0 -168 -53z" />
<glyph unicode="?" horiz-adv-x="1556" d="M0 221q0 45 25 131q47 178 178 323.5t303 211.5q-162 129 -162 330q0 176 129 298.5t305 122.5t305 -122.5t129 -298.5q0 -199 -157 -328q217 -78 362.5 -260.5t145.5 -405.5q0 -188 -150 -217q-6 -20 -27 -53q-12 -33 -49 -59.5t-100 -43t-102 -24.5t-117 -18.5 t-80 -10.5q-4 0 -14.5 -2t-14.5 -2h-245q-104 0 -264 35t-183 92q-35 35 -51 86q-51 10 -86 43q-78 31 -78 172h-2z" />
<glyph unicode="@" horiz-adv-x="1564" d="M0 688v4v211q0 178 176 409.5t350 327.5q160 90 383 91q90 0 182.5 -20.5t176.5 -63.5t137 -119t53 -174q0 -27 -4 -51.5t-14 -49t-18.5 -43t-29 -43t-28.5 -39t-37 -41t-35 -35t-38.5 -37t-36.5 -32.5h344q4 -147 4 -221q0 -518 -86 -668q-72 -125 -195 -221t-262 -143 q-80 -31 -115 -31h-172q-6 0 -98 35q-246 109 -246 356q0 8 2 22.5t2 20.5q-274 141 -368 440q-27 86 -27 115zM299 958q0 -82 20.5 -165.5t59.5 -161.5t108.5 -127t157.5 -49q25 0 82 30.5t102 30.5q29 0 105 -22.5t76 -40.5q0 -43 -54 -43q-266 0 -266 -156 q0 -119 86 -180.5t211 -61.5q96 0 188.5 35t149.5 103q86 102 86 335q0 39 -2 115t-2 113q0 98 10 164h-395q-2 -16 -2 -48q0 -23 2 -69.5t2 -71.5q0 -72 -16 -115q-10 -2 -35 -2q-98 0 -164 68t-90.5 154t-24.5 182q0 92 24.5 186t88 172t160.5 78q20 0 43 -6 q-8 -45 -9 -70q0 -72 39 -119t109 -47t117 47.5t47 118.5q0 84 -63.5 143.5t-143.5 82t-162 22.5q-276 0 -456.5 -174t-180.5 -448z" />
<glyph unicode="A" horiz-adv-x="1761" d="M-2 719h4q-2 -37 -2 -74q0 -139 41 -295q53 -199 170 -377q182 -279 352 -280q61 0 159.5 43t195.5 43h8q94 0 186 -41q96 -45 156 -45q100 2 186 84t174 213q63 98 133 248q-102 39 -173.5 116.5t-98.5 173.5q-19 69 -19 137v7v49q8 98 70 188t162 146 q-78 98 -182.5 153.5t-210.5 55.5q-98 0 -217 -45t-177 -45q-61 0 -186 45t-209 45q-119 0 -235.5 -70t-196.5 -190q-76 -115 -90 -285zM846 1309q0 133 108 264q55 68 143.5 115t170.5 53q4 -31 4 -62q0 -141 -103 -270q-57 -74 -143 -119q-80 -43 -157 -43h-7h-8h-2 q-6 31 -6 62z" />
<glyph unicode="B" horiz-adv-x="2039" d="M0 338v756q0 266 190.5 456.5t456.5 190.5h453q133 -16 284.5 -116.5t214.5 -235.5q2 -4 10.5 -20.5t10.5 -21t8 -20.5t8 -26.5t8.5 -33t8.5 -45t8 -59.5q18 -143 53 -174q29 -27 145.5 -31t133.5 -16l28 -22l17 -35l6 -29l-4 -524q-2 -266 -190.5 -456.5t-454.5 -190.5 h-744q-266 0 -456.5 190.5t-190.5 456.5zM530 348q0 -51 37 -88t88 -37h729q51 0 88 37t37 88t-36.5 88t-88.5 37h-729q-51 0 -88 -37t-37 -88zM530 1089.5q0 -51.5 37 -88t88 -36.5h359q51 0 88 36.5t37 88t-37 88t-88 36.5h-359q-51 0 -88 -36.5t-37 -88z" />
<glyph unicode="C" d="M0 717q0 201 78 391q76 184 225 334q295 299 719 299q428 0 731 -299q145 -145 219 -332q76 -182 76 -393q0 -213 -74 -393q-74 -182 -219 -326q-152 -147 -340 -227q-193 -78 -393 -78q-199 0 -389 78q-182 76 -331.5 225t-225.5 331.5t-76 389.5zM184 717 q0 -162 66 -318q63 -154 186 -272q123 -123 273 -182q147 -63 317 -64q166 0 320 64q152 63 278 184q240 233 240 588q0 174 -64 321q-61 156 -180 271q-245 247 -591 247h-3q-350 0 -590 -245q-121 -121 -186 -275q-66 -155 -66 -319zM440 717q0 145 86 231q84 86 215 86 q188 0 273 -147l-137 -72q-23 49 -56 64q-31 18 -59 18q-137 0 -137 -180q0 -80 34 -131q37 -49 103 -49q90 0 127 86l127 -64q-43 -74 -113 -117q-72 -43 -158 -43q-137 0 -221 84t-84 234zM1032 717q0 145 86 231t215 86q190 0 271 -147l-136 -72q-23 47 -53 64 q-35 18 -61 18q-137 0 -137 -180q0 -84 34 -131q35 -49 103 -49q88 0 125 86l129 -64q-45 -76 -115 -117q-72 -43 -154 -43q-141 0 -223 84q-84 84 -84 234z" />
<glyph unicode="D" d="M0 716.5q0 278.5 137 514t372.5 373t514.5 137.5t514.5 -137.5t372.5 -373t137 -514t-137 -514t-372.5 -372.5t-514.5 -137t-514.5 137t-372.5 372.5t-137 514zM168 717h2q0 -319 215 -563q98 193 311 366.5t416 218.5q-31 72 -59 129q-349 -112 -755 -112h-7 q-80 0 -119 2q0 -8 -2 -20.5t-2 -20.5zM195 928h2q45 -4 133 -4q342 0 649 92q-156 276 -342 461q-162 -82 -278.5 -227.5t-163.5 -321.5zM500 43h2q231 -180 522 -180q152 0 301 57q-41 350 -160 678q-188 -41 -380.5 -207t-284.5 -348zM815 1542q180 -186 334 -465 q279 117 420 297q-238 197 -545 197q-105 0 -209 -29zM1223 932q31 -66 69 -166q152 14 330 14q127 0 252 -6q-16 279 -201 496q-133 -199 -450 -338zM1343 623q104 -303 142 -623q162 104 264 268t123 355q-150 10 -273 10q-113 0 -256 -10z" />
<glyph unicode="E" horiz-adv-x="1714" d="M-10 1106l10 2q0 82 31 119q18 29 53 43q37 18 96 18h193q31 0 53.5 22.5t22.5 53.5q0 43 -3 90v121q0 51 25 90q31 43 102 64q23 12 109 12h39q121 -4 201 -35q78 -33 92 -127q53 2 98 2q109 0 182 -10q199 -25 265 -49q86 -27 108 -138q20 -113 37 -430 q10 -182 10 -301q0 -90 -6 -145q-33 -352 -88 -520q-29 -86 -57.5 -141.5t-57 -88t-76 -47t-88.5 -18.5t-120 -4q-221 0 -299 53t-78 219q0 92 20.5 147.5t67.5 78t96 26.5q31 2 82 2h57q8 0 12.5 -4t2.5 -10t-6.5 -16.5t-6.5 -22.5t-4 -27q0 -18 4.5 -38.5t2 -24.5 t-14.5 -6h-41l-20 -3l-21 -4l-18 -6l-17 -8l-12 -12l-8 -19l-2 -24q0 -29 8 -47.5t16.5 -28.5t37 -14t44.5 -4h68q117 0 149.5 28.5t32.5 130.5q0 156 -39 211.5t-116 65.5q-180 18 -244 41q-109 41 -109 243q0 4 -6 4.5t-6 -4.5q0 -137 -37 -245l-16 -49q-23 -51 -76 -54 h-12q-49 0 -111 17q-260 33 -405 96q-49 23 -76 82q-35 72 -74 264.5t-49 273.5q-8 68 -8 105zM12 1352v4l375 368q0 2 2 2l-6 -12q-23 -41 -23 -98q0 -45 2 -211q0 -20 -20 -21h-190q-70 0 -121 -22q-11 -6 -19 -10zM1176 758q43 6 94 6q92 -2 166 -37q0 174 -125 178h-6 q-61 0 -91 -41q-30 -43 -38 -106z" />
<glyph unicode="F" horiz-adv-x="2154" d="M0 717q0 213 149.5 362.5t362.5 149.5t362.5 -149.5t149.5 -362.5t-149.5 -362.5t-362.5 -149.5t-362.5 149.5t-149.5 362.5zM1130 717q0 213 150 362.5t362.5 149.5t362 -149.5t149.5 -362.5t-149.5 -362.5t-362 -149.5t-362.5 149.5t-150 362.5z" />
<glyph unicode="G" horiz-adv-x="1323" d="M0 66q0 178 182.5 317t440.5 139h110q-86 82 -86 176q0 59 33 119q-20 -2 -59 -2q-213 0 -348.5 133t-135.5 328q0 186 168 325.5t383 139.5h635l-141 -103h-201q96 -37 151.5 -139t55.5 -227q0 -190 -180 -332q-76 -59 -98.5 -94t-22.5 -86q0 -39 55 -98.5t111 -100.5 q125 -88 174 -180t49 -231q0 -184 -168 -321.5t-455 -137.5q-272 0 -460.5 102.5t-188.5 269.5zM229 133q0 -141 121 -241.5t299 -100.5q244 0 354.5 90t110.5 240q0 39 -8 65q-6 23 -14.5 43.5t-24.5 39t-28.5 32.5t-41 34.5t-43 31t-51.5 37t-53 36.5q-80 25 -158 25h-8 q-178 0 -313 -96q-139 -98 -140 -234zM360 1346q1 -33 5 -68q23 -162 125 -278.5t225 -118.5h8q115 0 184 106q55 86 56 203q0 33 -5 70q-20 162 -122.5 274.5t-225.5 116.5h-8q-117 0 -186 -105q-55 -84 -56 -200z" />
<glyph unicode="H" horiz-adv-x="1800" d="M0 444q0 -301 207 -526t532 -225q324 0 531 225q207 221 207 526q0 160 -56 299q-82 -51 -174 -69q45 -104 45 -234q0 -156 -73 -290q-76 -135 -203 -207q-127 -74 -277 -74q-154 0 -278 74q-129 76 -201 207q-76 133 -76 290q0 240 164 414q164 170 391 170 q104 0 201 -39q8 80 55 176q-117 43 -256 43q-328 0 -544 -241q-195 -220 -195 -519zM573 -74l115 -8q152 96 256.5 223t149.5 254t63 258q12 84 12 164q0 43 -4 82q-10 113 -26.5 203t-32.5 141l-19 51q-45 139 -90 243.5t-65 137.5l-23 35q80 -41 129 -98q47 -59 58 -109 q8 -41 8 -80v-14q-2 -45 -12 -72l-11 -26q8 -119 11 -230q0 -106 -11 -209q-18 -205 -63 -342t-102.5 -249.5t-119 -176t-112.5 -106.5t-84 -59zM1135 1212q0 10 2 21v-2q8 82 47 131l37 51q25 29 80 55.5t98 38.5l43 13q74 16 137 71.5t90 104.5l27 47q84 -117 100 -264 q6 -53 6 -96v-21q0 -70 -12 -121l-23 -92q-25 -68 -69.5 -123t-75.5 -76l-31 -22q-70 -41 -137 -41l-223 108q119 66 207 133.5t131 118.5t67.5 92t30.5 64l4 20q-37 -82 -100.5 -149.5t-127 -106.5t-125 -67.5t-95.5 -38.5l-37 -10q-51 90 -51 161z" />
<glyph unicode="I" horiz-adv-x="1001" d="M0 -240q209 12 266 56q61 43 62 219v1364q0 168 -62 217q-57 47 -266 57v58h1001v-58q-209 -8 -268 -57q-61 -49 -61 -217v-1364q0 -176 61.5 -219t267.5 -56v-57h-1001v57z" />
<glyph unicode="J" horiz-adv-x="2529" d="M-4 362l4 3q0 330 377 710q240 238 483 332q115 47 199 47q92 0 147 -55q53 -53 54 -148q0 -63 -25 -147q-8 -29 6 -37t33 -2l20 8q197 82 348.5 82t217.5 -86q31 -45 30 -106q0 -63 -32 -146q-14 -20 -6 -34.5t16 -18.5t30 -10q127 -39 217.5 -127t90.5 -219 q0 -121 -84 -248t-229.5 -231.5t-364.5 -172t-469 -67.5q-268 0 -508 79.5t-397.5 235.5t-157.5 358zM254 303q0 -19 2 -37q20 -207 256 -329q188 -100 428 -101q59 0 123 6q313 31 522 199q188 154 189 338q0 18 -2 37q-20 205 -256 327q-190 100 -431 101q-59 0 -120 -6 q-207 -20 -375 -104.5t-258 -207.5q-78 -109 -78 -223zM557 260q0 72 37 143q63 131 213 197q92 41 186 41q55 0 111 -14q156 -41 223 -168q35 -66 35 -135q0 -66 -31 -134q-63 -145 -223 -213q-88 -38 -176 -38h-4q-70 0 -137 22q-150 47 -207 178q-27 59 -27 121zM694 205 q0 -15 4 -27q12 -51 62 -72q27 -12 55 -12q25 0 49 8q57 18 88 68q20 33 21 66q0 14 -6 30q-12 49 -62 70q-27 10 -53 10q-25 0 -51 -8q-55 -18 -84 -66q-23 -33 -23 -67zM987 338v2q6 -18 27 -27q10 -4 20 -4t21 4q23 8 33 26.5t3.5 37t-24.5 26.5q-18 6 -40.5 -2 t-33.5 -26q-6 -12 -6 -25v-12zM1642 1632q0 27 17 51q20 33 59 43q70 14 140 15q104 0 204 -31q170 -55 293 -190.5t160 -313.5q14 -72 14 -139q0 -104 -32 -201v-2q-12 -37 -48 -55q-23 -10 -45 -10q-14 0 -30 4q-39 12 -56 47q-10 23 -10 43q0 16 4 31v2q23 70 23 143 q0 47 -8 98q-27 127 -115 223.5t-209 135.5q-72 20 -143 20q-49 0 -101 -10q-10 -2 -20 -2q-29 0 -53 16q-33 23 -41 62q-2 10 -3 20zM1724 1311q0 20 13 43q18 29 53 37q39 8 76 8q137 0 235 -109q59 -68 78 -153q6 -35 6 -68q0 -49 -16 -98q-10 -33 -41 -47 q-18 -10 -37 -11q-14 0 -27 5q-33 10 -49 40q-8 18 -8 37q0 14 4 27q8 29 8 53q0 57 -43 103q-45 53 -110 53q-20 0 -41 -4q-10 -2 -19 -2q-23 0 -43 14q-29 18 -37 51q-2 10 -2 21z" />
<glyph unicode="K" horiz-adv-x="2224" d="M0 -307v2048h526v-760h469q174 252 527 760h585l-671 -977q0 -25 198.5 -293t395.5 -524l196 -254h-702q-96 135 -293 409.5t-293 411.5h-410v-819h-526z" />
<glyph unicode="L" horiz-adv-x="2121" d="M0 1495q0 102 71.5 170t186.5 68q113 0 182 -66q72 -68 72 -176q0 -98 -70 -164q-71 -67 -185 -67h-3h-2q-113 0 -182.5 67.5t-69.5 169.5v-2zM27 -297v1368h454v-1368h-454zM733 -297h455v764q0 72 16 111q29 70 88.5 118.5t147.5 48.5q229 0 229 -309v-731h455v784 q0 303 -143.5 461t-378.5 158q-264 0 -412 -227v-4h-2l2 4v194h-455q4 -66 4 -407.5t-4 -960.5z" />
<glyph unicode="M" horiz-adv-x="2746" d="M0 799q0 72 4 215q49 16 98 16h37q35 -47 82 -143t64 -125q4 14 16 75.5t20.5 88t22.5 76t32.5 84t41.5 63.5q57 -10 94 -10q12 0 23 2q49 -111 94 -334t80 -318q-2 0 -9 3l-6 2q-18 0 -53 -12.5t-45 -14.5q-82 207 -127 416q-31 -53 -31 -182.5t-22 -180.5l-10 4 q-16 0 -45 -4t-44 -4h-36q-55 98 -117 182q-6 -12 -6 -30.5t6 -53t6 -51.5l-2 -24q-61 -31 -107 -31q-14 0 -20 2q-35 115 -35 291zM727 643q0 55 16.5 118.5t57.5 117t96 55.5q20 0 57 -10.5t47 -12.5q18 -82 19 -166q0 -57 -12 -112q-25 8 -78 10t-76 8q-10 -41 -10 -76 q0 -43 20.5 -75.5t61.5 -32.5q18 0 53 10t53 10q35 0 47 -28q-86 -33 -168 -33q-94 0 -139 61.5t-45 159.5v-4zM846 700l16 2q6 0 16.5 -4t14.5 -4l14 6q4 29 4 45q0 37 -10 82q-45 -51 -55 -127zM1071 588v2q0 252 160 373q66 -6 123 -48q-2 -35 -17 -137q-10 -80 -10 -133 v-29q-41 -4 -59 -4q-16 0 -88 11q-10 -25 -11 -48q0 -45 35 -77.5t80 -32.5q53 0 84 47q37 -12 43 -35q-45 -43 -129 -43q-76 0 -143.5 41t-67.5 113zM1184 676l2 2q8 -12 28 -12h19q18 39 18 100q0 27 -12 80q-6 -16 -20.5 -51t-24.5 -64t-10 -55zM1389 717v7q0 46 47 46 q12 0 36.5 -2t34.5 -2q6 31 6 63q0 59 -16 178t-16 179q0 88 20 147q10 -6 55.5 -12t83.5 -51q-12 -53 -12 -137q0 -41 8 -166q4 -72 4 -125q0 -41 -2 -70h13q14 0 18 12.5t4 26.5t8 14q16 0 39 -18.5t47.5 -45t30.5 -32.5q-18 -14 -83.5 -18t-80.5 -9q-2 -25 -2 -73 q0 -33 2 -68t4 -78t2 -67q-16 -2 -46.5 -4t-45.5 -4v41q0 43 -6 116q-8 90 -8 125q-12 4 -65.5 8t-77.5 21zM1829 733q0 41 4 119q23 -2 41 -10t43 -22.5t37 -20.5l-2 -56q0 -121 18 -237q39 14 63.5 47t35 86t12.5 86t4 92v23q6 -2 18 -2q41 -4 101 -52q0 -6 2 -20t2 -21 q0 -31 -8.5 -61.5t-16.5 -44.5t-30.5 -51t-28.5 -47q-31 -25 -70 -86q-43 -14 -78 -15q-145 0 -145 291zM2236 516l2 -4q14 12 50 20q0 6 2 19q8 72 14 117t26.5 120.5t45 122.5t74 82t108.5 37q70 0 156 -49q35 -76 34 -154q0 -135 -96 -243.5t-231 -139.5q-4 -66 -4 -98 q0 -150 37 -240q-16 4 -76 5q-31 0 -45 4q-18 43 -35 196.5t-62 204.5zM2423 561v2q80 20 135 98t55 162q0 61 -30 115q-47 -43 -82 -114.5t-47.5 -123t-30.5 -139.5z" />
<glyph unicode="N" horiz-adv-x="2498" d="M0 1339q20 16 51 25q29 8 51 8h19q20 0 49 -2q45 -2 66 -2q12 0 77 4q33 2 59.5 2t47.5 -2q41 -4 65 -16q12 -6 26.5 -26.5t25 -39t24.5 -53.5t21 -45q78 -168 192 -334q4 -6 14.5 -22.5t18.5 -26.5t18.5 -24.5t22.5 -22.5t22.5 -18.5t24.5 -12.5t25 0q57 10 63 240 q2 39 2 71q0 152 -31 209q-12 23 -32.5 37.5t-51 24.5t-47.5 22q29 57 102.5 76t198.5 19h109l53 -3l55 -6l45 -12l41 -18l27 -29q18 -37 23 -86q0 -14 2 -29q0 -41 -6 -106q-8 -86 -9 -107q-6 -47 -6 -94q0 -37 4 -78q8 -90 62 -125q18 2 34.5 8.5t33 22.5t22.5 24.5 t26.5 35t22.5 28.5q96 127 192 334l19 47l24 55l25 41l33 29q33 14 78 14h18q41 0 94 -4q66 -4 97 -4q18 0 57 2t67.5 4t61.5 -2t53.5 -12t28.5 -27q6 -12 6 -26q0 -59 -72 -179q-35 -59 -71.5 -108t-94 -119t-75.5 -96q-4 -4 -29 -37t-37 -49.5t-24.5 -47t-10.5 -55.5 q0 -16 6.5 -30.5t20.5 -30.5t20.5 -24.5t29 -27t24.5 -22.5q145 -133 229 -239q82 -106 82 -154q0 -68 -105 -84q-53 -8 -108 -8q-43 0 -88 6q-41 4 -76 4q-53 0 -92 -10h-12q-135 23 -285 192q-8 8 -34.5 43t-45 53.5t-47.5 35t-55 12.5q-47 -8 -63.5 -59.5t-18.5 -123 t-21 -100.5q-27 -49 -161 -49q-57 0 -136 8q-160 16 -291 82t-206.5 139.5t-165.5 190.5q-213 272 -404 659q-6 12 -22.5 47t-24.5 53.5t-20.5 49.5t-16.5 57.5t-6 54.5z" />
<glyph unicode="P" horiz-adv-x="2150" d="M0 485q20 285 344 355q25 182 88.5 393t147.5 299q98 100 245.5 155.5t298.5 55.5q176 0 336 -80t240 -225q39 -74 86 -268.5t63 -317.5q31 -12 70 -12q61 0 61 59q0 23 -12 70q-10 40 -10 65v8v9h2q55 0 125 -105q69 -105 69 -164q0 -43 -20 -75.5t-38.5 -51t-68 -37 t-67.5 -22.5l-74 -16q-10 -2 -16 -5v-53q0 -354 -158 -518l51 -51q8 -4 51.5 -24.5t74 -39t38.5 -36.5q-133 -104 -270 -105q-70 0 -154 35q-180 -76 -368 -76q-242 0 -480 125q-74 -16 -112 -39q-14 -8 -55.5 -36.5t-76 -49t-57.5 -20.5q-6 37 -6 75q0 162 109 258 q-123 203 -127 527l-15 2h-6h-6q-59 0 -149 -35q-98 -37 -131 -39q-8 0 -21 4zM473 293l2 2q0 -27 14 -55q55 -197 183 -283q88 -59 217 -96t239 -37q135 0 299 57.5t246 147.5q139 150 139 526q0 463 -188 776q-25 41 -37 57.5t-38.5 33t-67.5 16.5q-102 0 -219 -125 q-156 96 -287 96q-121 0 -215 -88t-145.5 -215t-86 -289t-45 -289t-10.5 -235zM846 1128.5q0 45.5 32.5 78t75.5 32.5q45 0 78 -32.5t33 -78t-33 -76t-78 -30.5q-43 0 -75.5 30.5t-32.5 76zM961 1165q0 -25 24 -24q10 0 18.5 8t8.5 18.5t-8.5 18.5t-18.5 8q-25 0 -24 -27v-2 zM1153 1042l4 5l-2 -7zM1163 1053l107 106l104 -106q-45 -14 -102 -15q-60 1 -109 15zM1167 1008q55 -10 103 -11q45 0 100 11l-100 -101zM1382 1040v7l2 -5zM1438 1128.5q0 45.5 32.5 78t77.5 32.5t78 -32.5t33 -78t-33 -76t-78 -30.5t-77.5 30.5t-32.5 76zM1550 1165h2 q0 -10 8.5 -18t16.5 -8q10 0 18.5 8t8.5 18q0 27 -27 27q-10 0 -18.5 -8t-8.5 -19z" />
<glyph unicode="Q" horiz-adv-x="1767" d="M0 -270v1960q248 43 608 43q287 0 483.5 -49.5t340.5 -157.5q338 -256 337 -758q0 -532 -329 -809q-303 -258 -924 -258q-293 0 -514 29h-2zM449 61h2q39 -8 157 -8h8q313 0 492 174q182 176 182 525q0 315 -168 474.5t-469 159.5q-135 0 -204 -18v-1307z" />
<glyph unicode="R" d="M0 -33q0 113 80 193t192.5 80t192.5 -80t80 -193q0 -115 -80 -194.5t-192.5 -79.5t-192.5 80t-80 192v2zM0 653v391q367 0 678 -182t493.5 -493.5t182.5 -677.5h-393q0 397 -281 678q-282 282 -675 282h-3zM0 1346v2v393q416 0 795 -164t653 -438.5t438 -653.5t164 -794 h-393q0 336 -131 643t-354.5 528t-528.5 352.5t-643 131.5z" />
<glyph unicode="S" horiz-adv-x="2019" d="M0 1182q0 231 164 395t395 164q160 0 297 -86q74 14 164 14q399 0 682 -282.5t283 -679.5q0 -100 -23 -207q57 -121 57 -248q0 -231 -163.5 -395t-395.5 -164q-139 0 -264 65q-92 -16 -176 -16q-397 0 -680 282.5t-283 682.5q0 96 19 192q-76 133 -76 283zM446 430l7 2 q0 -84 61 -174q145 -213 504 -213q102 0 198.5 22.5t180.5 69.5t135 131t51 195q0 119 -61.5 200.5t-151.5 118.5t-196.5 68t-196.5 47t-151.5 53t-61.5 92q0 68 75.5 101t153.5 33q82 0 135.5 -27t78 -61.5t43 -71.5t51 -61.5t81.5 -26.5q55 0 98.5 39t43.5 94t-31 110 q-61 113 -194.5 164t-282.5 51q-94 0 -182.5 -18t-170 -59t-133 -117t-51.5 -178q0 -135 82 -219t199 -117t235.5 -59.5t200.5 -69.5t82 -121q0 -59 -47 -100t-104.5 -55.5t-116.5 -14.5q-78 0 -133.5 22.5t-80 55.5t-47 71.5t-37 71.5t-47 55.5t-75.5 22.5 q-57 0 -100.5 -35t-43.5 -92z" />
<glyph unicode="T" horiz-adv-x="2519" d="M-6 -78l6 2q61 -6 123 -6q360 0 643 221q-168 2 -301 102.5t-182 256.5q41 -8 96 -9q72 0 137 19q-180 35 -299 178t-119 330v6q109 -61 236 -64q-106 70 -170 184.5t-64 248.5q0 139 72 260q193 -240 471.5 -383.5t595.5 -159.5q-14 68 -14 119q0 213 151.5 364.5 t366.5 151.5q223 0 377 -164q178 37 327 127q-57 -186 -225 -287q150 18 295 82q-98 -154 -256 -268v-68q0 -207 -61.5 -415.5t-184.5 -397t-297 -338t-413.5 -235.5t-518.5 -88q-428 0 -792 231z" />
<glyph unicode="U" horiz-adv-x="1767" d="M0 251.5q0 110.5 12 332.5q8 109 78 178t178 76q205 10 616.5 10t616.5 -10q109 -6 178.5 -76t77.5 -178q10 -184 10 -332t-10 -332q-8 -109 -77.5 -178.5t-178.5 -75.5q-205 -10 -616.5 -10t-616.5 10q-109 6 -178.5 76t-77.5 178q-12 221 -12 331.5zM137 541h125v-668 h121v668h125v112h-371v-112zM270 1776h123l78 -312h8l74 312h123l-94 -303q-47 -150 -47 -154v-324h-121v310q-4 29 -12.5 53t-18.5 55t-18 51zM508 -37q0 -98 74 -98q66 0 125 72v-64h106v576h-106v-439q-43 -43 -64 -43q-29 0 -29 39v443h-106v-486zM670 1141v299 q0 70 45 108.5t114 38.5q68 0 111 -41t43 -108v-297q0 -74 -41 -117t-115 -43q-72 0 -114.5 45t-42.5 117v-2zM778 1124l2 2q0 -47 45 -47q47 0 47 51v314q0 18 -14 30.5t-32.5 12.5t-33 -12.5t-14.5 -30.5v-320zM918 -127h108v43q41 -51 102 -51q96 0 97 127v319 q0 145 -105 146q-51 0 -94 -56v252h-108v-780zM1026 -18v360q23 23 45 23q45 0 45 -58v-303q0 -49 -39 -49q-28 0 -51 27zM1073 1085v486h107v-441q0 -39 28 -38q27 0 64 43v436h106v-576h-106v64q-59 -72 -125 -72q-74 0 -74 98zM1300 29l7 6q0 -78 38.5 -129t116.5 -51 q160 0 160 178v43h-111q0 -4 2.5 -28.5t-2 -35t-6.5 -29t-14 -24.5t-29 -8q-47 0 -47 82v108h205v148q0 78 -39 123t-117 45q-74 0 -119 -47.5t-45 -120.5v-260zM1417 238v61q0 63 47 63t47 -63v-61h-94z" />
<glyph unicode="V" horiz-adv-x="2347" d="M0 1184q113 133 225.5 237.5t196.5 159.5t149.5 88t98.5 45l35 8q25 4 49 4q39 0 71 -12q53 -20 88 -71.5t59.5 -113t45 -147.5t31 -159.5t29 -163.5t30.5 -146q66 -256 106.5 -364.5t85.5 -108.5q49 0 137.5 115t192.5 311q53 98 53 187q0 27 -4 47q-18 106 -104 133 q-23 8 -49 8q-72 0 -170 -53q45 266 274 428q174 123 357 123q25 0 49 -2q209 -16 284 -185q37 -78 37 -180q0 -59 -12 -125q-37 -209 -143.5 -426t-231.5 -385t-272.5 -317.5t-254 -239.5t-186.5 -141q-86 -49 -161.5 -49t-143 43t-114.5 98t-78 117q-37 78 -201 612.5 t-199 575.5q-2 4 -8 8t-28.5 10t-49 0t-75.5 -28.5t-103 -67.5z" />
<glyph unicode="W" horiz-adv-x="2525" d="M-2 -88h2l215 760q72 41 176.5 63.5t171.5 26.5l70 2q102 0 213 -21q207 -41 295 -125l-213 -757q-74 57 -164 94t-141 43l-54 8q-70 6 -133 6q-33 0 -88 -4t-172 -28.5t-178 -67.5zM254 891l4 -2l215 760q72 41 176.5 65.5t171.5 26.5l68 2q104 0 213 -21 q207 -41 295 -125l-213 -759q-74 57 -164 94t-141 43l-54 8q-72 6 -131 6q-33 0 -88 -4t-172 -26.5t-180 -67.5zM1141 -162l213 760q76 -57 166 -94t141 -43l51 -8q70 -6 133 -7q33 0 88.5 4.5t172 27t178.5 67.5l-213 -760q-72 -41 -176.5 -63.5t-172.5 -24.5l-67 -4 q-104 0 -213 20q-207 41 -297 125h-4zM1386 811l213 758q76 -57 166 -94t142 -43l51 -9q70 -6 133 -6q33 0 88 4t172 26.5t178 68.5l-213 -758q-72 -41 -176 -65.5t-174 -26.5l-68 -4q-106 0 -210 22q-207 39 -297 125z" />
<glyph unicode="X" horiz-adv-x="1925" d="M0 311h449l354 586l-266 469h-449l266 -469zM741 496l709 1245h475l-706 -1245l454 -803h-475z" />
<glyph unicode="Y" horiz-adv-x="2816" d="M0 1313l12 -39q8 -12 16.5 -20.5t12.5 -10.5l4 -4l39 -20h227l588 -705q23 -25 23 -51v-393q0 -16 -6.5 -24.5t-12.5 -10.5h-6q-229 0 -291 -6q-20 0 -20 -19v-112h1056v116q0 6 -6 10.5t-10 4.5h-299q-18 0 -18 30v414q-2 6 4 14.5t12 14.5l6 6q23 23 541 510h272 q18 0 37 14l35 39q12 14 12 37v29q-2 6 -6 10t-6 4h-897l-14 -12q-2 -12 4 -26.5t12 -20.5l4 -9l47 -47l37 -14h236l-424 -399l-467 596h84q27 -2 45 8l139 43q2 0 6 2t10 10t6 18v29q0 6 -4 10t-8 4h-1007q-16 -2 -21 -14v-16h-4zM2437 1536l379 -14l-170 -1162l-125 7z M2464 -27l8 226l225 -9l-8 -225z" />
<glyph unicode="[" horiz-adv-x="2043" d="M0 670q0 154 47 319.5t127 296.5q127 213 375 336t510 123q266 0 512 -168t375 -414q102 -176 102 -438q0 -307 -145.5 -544.5t-393 -362.5t-553.5 -123q41 74 125 225.5t151.5 268t133.5 221.5l2 4q6 10 24.5 38.5t26.5 41t20.5 35t20.5 43t13 42.5q12 49 12 99 q0 164 -99 291l564 165q-584 0 -877 -2q-14 2 -45 2q-203 0 -340 -151.5t-115 -353.5q-4 18 -4 57q0 90 31 158l-418 411l406 -698q39 -147 164 -241.5t276 -94.5q35 0 68 6l-135 -565q-236 0 -457 145.5t-359 360.5q-135 209 -135 471zM639 709q0 -158 112.5 -270.5 t268.5 -112.5t268.5 112.5t112.5 270.5q0 156 -110.5 268.5t-268.5 112.5t-268.5 -113t-110.5 -268h-4z" />
<glyph unicode="]" horiz-adv-x="2123" d="M0 127v1180q0 2 6 39l694 -594l-692 -666q-8 29 -8 41zM92 1427q14 6 35 7h1870q18 0 37 -7l-697 -596l-92 -73l-182 -150l-182 150l-93 73zM94 6l699 670l270 -219l270 219l699 -670q-16 -6 -35 -6h-1870q-17 0 -33 6zM1425 752l693 594q6 -18 6 -39v-1180q0 -18 -6 -41 z" />
<glyph unicode="^" horiz-adv-x="2265" d="M0 485v310q0 20 14.5 36.5t36.5 16.5h543l-236 -412h-307q-23 0 -37 14.5t-14 36.5v-2zM250 -14l135 -78zM268 76h2q-6 23 4 41l623 1081q10 18 30.5 24.5t39.5 -5.5l133 -76q20 -10 26.5 -33t-6.5 -41l-620 -1081q-10 -18 -33 -24.5t-41 5.5l-133 78q-18 8 -25 31z M901 436l236 412h137l192 -412h-565zM1061 1716q2 18 12 25q20 10 73.5 -63.5t148 -237.5t126.5 -215q57 -90 155.5 -268.5t186.5 -346.5t90 -172q23 -39 -3.5 -73.5t-63.5 -49.5q-37 -16 -49.5 -18t-61.5 14q-61 31 -389 805q-10 23 -28.5 64t-35 77.5t-39 86t-39 90.5 t-34.5 86t-28.5 79.5t-16.5 67.5t-4 49zM1733 844v4h481q20 0 36.5 -16.5t16.5 -36.5v-310q0 -20 -16.5 -36.5t-36.5 -16.5h-272q-8 33 -17 47l-49 94q-131 248 -143 271zM1759 199q6 23 27 32l76 39q20 10 42.5 4t32.5 -28l64 -123q25 -49 -21 -80l-55 -33 q-20 -10 -42.5 -6t-35.5 27l-82 127q-12 20 -6 43v-2zM1917 -96v-2q2 33 8 43t27 28l49 19q125 25 147 -144q6 -66 -2 -155q-8 25 -90 61.5t-112 79.5q-27 37 -27 70z" />
<glyph unicode="_" horiz-adv-x="2224" d="M0 358v717h287v-424h1648v424h289v-717h-2224z" />
<glyph unicode="`" d="M-8 678h8q0 289 137 534.5t372.5 387t514.5 143.5t514.5 -143.5t372.5 -387t137 -534.5q0 -8 -2 -20.5t-2 -20.5q-16 426 -313 723t-711 297t-711 -297t-313 -723q0 8 -2 20.5t-2 20.5zM371 680h4q0 279 190.5 477.5t458.5 198.5t458.5 -199t190.5 -477q0 -6 -2 -20.5 t-2 -20.5q-16 264 -202.5 448.5t-444.5 184.5t-444.5 -184.5t-202.5 -448.5q0 6 -2 20.5t-2 20.5zM715 281q0 68 10 121t22.5 87.5t39 59t47 37t59.5 20.5t63.5 8t71.5 2t71.5 -2t63.5 -8t59.5 -20.5t47 -37t39 -59t22.5 -88t10 -120.5q0 -242 -92 -416t-219 -174t-219 174 t-92 416h-4zM811 854q0 90 63.5 155.5t151.5 65.5t151.5 -65.5t63.5 -155.5t-63.5 -155.5t-151.5 -65.5t-151.5 65.5t-63.5 155.5z" />
<glyph unicode="a" horiz-adv-x="2252" d="M2 141q0 6 4 13l-2 -2q10 16 33 2q512 -297 1114 -297q401 0 793 149q10 4 30.5 12.5t28.5 12.5q31 12 49.5 -12.5t-12.5 -45.5q-37 -27 -94 -61q-176 -104 -393.5 -161.5t-424.5 -57.5q-319 0 -603.5 112.5t-510.5 315.5q-12 10 -12 20zM621 735q0 141 69.5 241.5 t190.5 151.5q111 47 272 68q55 6 180 16v35q0 131 -28 176q-43 61 -136 62h-16q-68 -6 -117 -43t-63 -103q-8 -41 -41 -47l-236 29q-35 8 -34 37q0 6 2 14q35 182 172 270.5t319 98.5h51q233 0 365 -121q20 -20 38.5 -45t29 -43.5t18.5 -53t12 -49t6 -57.5t2 -53v-496 q0 -53 16.5 -98t31 -63.5t47.5 -63.5q12 -18 12 -33q0 -16 -17 -28q-170 -147 -184 -160q-25 -18 -59 -4q-29 25 -51.5 47t-30.5 32.5t-30.5 41t-29.5 41.5q-115 -125 -225 -156q-70 -20 -172 -21q-158 0 -260 98.5t-102 276.5zM973 776q0 -80 41 -129t108 -49q6 0 18.5 2 t16.5 2q86 23 133 111q23 39 35 86t12 75.5t2 94.5v51q-119 0 -180 -16q-180 -51 -180 -228h-6zM1831 109q0 2 2 6v2q4 8 12 16q51 35 99 47q78 20 151 23q7 1 13 1q13 0 26 -3q92 -8 111 -31q8 -12 8 -37v-14q0 -72 -39 -170.5t-109 -157.5q-10 -8 -18 -8q-4 0 -8 2 q-12 6 -6 22q75 176 75 246q0 25 -8 35q-20 25 -115 25q-35 0 -81 -4q-51 -6 -95 -13q-12 0 -16 4q-3 3 -3 6q0 1 1 3z" />
<glyph unicode="b" horiz-adv-x="2686" d="M0 963q0 113 80 192.5t192 79.5q96 0 172 -61.5t97 -153.5l1028 -414q66 39 139 39q4 0 14.5 -2t16.5 -2l225 326q2 150 108.5 256t256.5 106q152 0 258 -106.5t106 -258t-106.5 -258t-257.5 -106.5l-349 -254q-10 -104 -87.5 -176t-182.5 -72q-98 0 -172 61.5t-94 153.5 l-1028 412q-66 -39 -140 -39q-113 0 -192.5 80t-79.5 192zM72 958v5q0 -82 59 -141.5t141 -59.5q18 0 43 4l-84 33v2q-57 27 -81 86q-12 29 -13 57q0 31 13 62q25 61 81 86q27 12 56 12h8q27 0 55 -10v2l101 -41q-59 106 -179 106q-82 0 -141 -59.5t-59 -143.5zM1522 287 l4 -6q59 -106 178 -107q82 0 141.5 59.5t59.5 143.5q0 82 -59.5 141.5t-143.5 59.5q-29 0 -43 -5l82 -32q61 -25 88 -86q14 -31 14 -62q0 -29 -12 -59q-25 -63 -86 -88q-31 -12 -62 -13q-29 0 -59 13q-16 6 -51 20.5t-51 20.5zM2079 966.5q0 -100.5 71.5 -172t171.5 -71.5 q102 0 174 71.5t72 172t-71.5 172t-174.5 71.5q-100 0 -171.5 -71.5t-71.5 -172zM2130 969q0 -82 57.5 -139.5t139.5 -57.5q80 0 137 57.5t57 139.5q0 80 -57.5 137t-136.5 57q-82 0 -139.5 -57t-57.5 -137z" />
<glyph unicode="c" horiz-adv-x="2269" d="M0 414q0 213 151.5 364.5t362.5 151.5l2 -2q0 6 -2 14t-2 12q0 242 170 412t410 170q211 0 370.5 -135t196.5 -340h35q240 0 409.5 -170t169.5 -411.5t-170 -411.5t-409 -170q-16 0 -25 2v-2h-1184v2q-203 10 -344 159.5t-141 354.5z" />
<glyph unicode="d" horiz-adv-x="2097" d="M0 637l438 334l-438 332l637 415l416 -356l426 356l618 -395l-405 -338l405 -348l-629 -379l-415 320l-416 -320zM436 123v117l193 -113l415 317l3 -2v-727zM446 975l603 -379l606 401l-602 346zM1047 -285l2 727l4 2l413 -317l205 123v-129z" />
<glyph unicode="e" horiz-adv-x="2856" d="M0 584q0 63 10 110t45 96.5t96.5 80t172 49t264.5 20.5q180 0 303 -27q80 -16 119 -36v-330h-600q0 -43 4 -69.5t18 -63.5t55 -55.5t103 -18.5q174 0 174 125h248v-182q-55 -27 -115 -39q-139 -31 -307 -31q-188 0 -309 26.5t-178.5 80t-78 115t-20.5 153.5zM397 653h9 h364q0 37 -4 55.5t-18.5 49t-57.5 45t-110 14.5q-63 0 -104.5 -16.5t-55.5 -47t-18.5 -49t-4.5 -51.5zM1001 117v162l5 2q4 0 8 4q150 74 151 178h-159v80h165q2 25 3 47q0 92 -27 155q-33 80 -141 127v375h219v-416h4q63 90 180 91q88 0 141 -54q-82 -59 -82 -209 q0 -213 156 -249q-2 -63 -12 -110.5t-33 -96.5t-68 -76t-110 -27q-131 0 -187 103h-2v-86h-211zM1006 281v182h159q-2 -104 -151 -178q-4 -4 -8 -4zM1006 543v329q109 -47 141 -127q27 -63 27 -155q0 -23 -3 -47h-165zM1223 520h2q0 -158 18.5 -221t73.5 -63q57 0 75.5 63 t18.5 221v10q0 72 -2 107t-10 76t-28.5 59.5t-55.5 15.5q-33 0 -53.5 -18t-26.5 -61t-10 -78q-3 -23 -3 -65q0 -21 1 -46zM1468 657v2q0 150 82 209q35 -37 53.5 -108.5t20.5 -114.5q1 -22 1 -54.5t-1 -76.5v-106q-156 37 -156 249zM1481 985h4q0 141 82 193q70 53 207 53 q8 0 100 -6l219 -447v-209q0 -29 4 -80t4 -69h-205l-10 106h-4q-67 -118 -203 -118h-2q-37 0 -53 2v106q0 88 -2 131t-20.5 115t-53.5 108q78 59 277 60h49v63q0 59 -18.5 88t-73.5 29q-53 0 -67.5 -33t-14.5 -92h-219zM1683 670q0 -127 84 -127q27 0 47.5 10t33 28.5 t20.5 37t10 49t4 49t0 49.5t-2 41q-8 0 -34.5 -2t-35.5 -2l-28 -4l-29 -6l-22 -11l-21 -16l-14 -23l-10 -32zM1821 1331h315l205 -475l223 475h293l-387 -735v-389h-289v389l-88 182v187q0 113 -45 178t-176 84zM1874 1225q131 -18 176 -84t45 -178v-187z" />
<glyph unicode="f" horiz-adv-x="1101" d="M0 641v391h315v197q0 213 139.5 362.5t336.5 149.5h313v-391h-313q-31 0 -55.5 -35t-24.5 -84v-201h393v-391h-393v-948h-394v948h-315z" />
<glyph unicode="g" horiz-adv-x="1923" d="M0 6q0 -129 127 -221t307 -92t309 92t129 221q0 131 -129 223.5t-309 92.5q-2 0 -6 -2.5t-6 -2.5q-49 45 -49 98.5t49 110.5q145 8 245.5 112.5t100.5 248.5q0 57 -14 102q57 10 90 29v235q-97 -65 -219 -65h-4h-15q-94 63 -207 63q-154 0 -262 -106.5t-108 -257.5 q0 -96 49 -178t131 -131q-57 -74 -57 -152q0 -74 53 -154q-94 -43 -149.5 -112.5t-55.5 -153.5zM248 890.5q0 67.5 45 117t104 49.5q61 0 104.5 -49.5t43.5 -117t-43 -116.5t-105 -49q-59 0 -104 49t-45 116.5zM254 6q0 55 53 94t129 39t129 -39t53 -94q0 -53 -53 -92 t-129 -39t-129 39t-53 92zM932 1575q0 70 49 119t118.5 49t119 -49t49.5 -119t-49.5 -119t-119 -49t-118.5 49t-49 119zM971 250v981h274v-981h-274zM1341 1022h113v-584q8 -61 41 -106t72 -65.5t77.5 -33t63.5 -14.5h41q55 0 98 17q47 16 62 32l14 19l4 202 q-83 -26 -130 -26h-3q-10 0 -18 2q-47 6 -56 33l-8 26q0 6 -2 8v488h186v209h-186v190h-252v-190h-112v-209z" />
<glyph unicode="h" horiz-adv-x="1773" d="M0 -299v2032l1026 -1016zM0 -299l1026 1016l274 -273l-413 -239l-887 -512v8zM0 1733v8l887 -512l413 -240l-274 -272zM1026 717l274 272l474 -272l-474 -273z" />
<glyph unicode="i" d="M0 716.5q0 278.5 137 514t372.5 373t514.5 137.5t514.5 -137.5t372.5 -373t137 -514t-137 -514t-372.5 -372.5t-514.5 -137t-514.5 137t-372.5 372.5t-137 514zM205 717q0 -340 239.5 -579.5t579.5 -239.5t579.5 239.5t239.5 579.5t-239.5 579.5t-579.5 239.5 t-579.5 -239.5t-239.5 -579.5zM580 356q0 -63 45 -108t108 -45q68 0 117 49t49 117v551l410 75v-426q-31 10 -58 11q-68 0 -117 -49.5t-49 -116.5q0 -63 43 -108.5t106.5 -45.5t115 47t53.5 111v807l-594 -103v-614q-31 10 -57 10q-70 0 -119 -49t-49 -117z" />
<glyph unicode="j" horiz-adv-x="1564" d="M0 -307v2048h1565v-1673l-1170 6v-381h-395zM391 428h817v922h-817v-922z" />
<glyph unicode="k" d="M0 580v274l6 121l14 127l29 108l49 115l74 96l104 99q299 225 730 225h32v-1591h254v426q14 -23 80 -131.5t105 -163.5q59 -82 130.5 -108.5t188.5 -26.5h74v241q-92 0 -129 14.5t-86 83.5q-29 37 -76 117t-53 90l350 488h-303l-279 -387v927q276 -45 488 -204 q59 -45 104 -98.5t74 -96.5t49.5 -114.5t28.5 -108.5t14 -127t6 -121v-274l-6 -121l-14 -127l-29 -109l-49 -114l-74 -97l-104 -98q-299 -225 -751.5 -225t-751.5 225q-59 45 -104.5 98.5t-74 96.5t-49 114.5t-29 108.5t-14.5 127t-6 121h-2zM166 274q135 -137 393 -137 q164 0 283 84t119 242q0 104 -37 174t-92.5 94.5t-121 40.5t-120.5 18.5t-92 25t-37 61.5q0 94 137 94h6q117 0 178 -60l160 160q-123 123 -348 123q-160 0 -270.5 -86t-110.5 -242q0 -104 43 -171.5t106.5 -92t129 -35t123 -18.5t75.5 -29q20 -23 21 -61q0 -94 -148 -94 q-158 0 -231 73z" />
<glyph unicode="l" horiz-adv-x="2721" d="M0 717q0 336 237.5 573.5t573.5 237.5q254 0 450.5 -131t301.5 -371q31 -74 264 -614q43 -98 77.5 -151.5t100.5 -92.5t164 -45h14q137 0 227 74q94 78 97 196q0 55 -16.5 92t-61.5 66t-84 45t-121 43q-256 84 -368.5 184.5t-112.5 278.5q0 186 118.5 298.5t321.5 112.5 q260 0 391 -235l-172 -88q-92 127 -229 127q-94 0 -157.5 -59.5t-63.5 -149.5q0 -27 4 -51.5t18.5 -43t24.5 -32.5t36.5 -30.5t41 -24.5t51.5 -22.5t55.5 -20.5t65.5 -20.5t67 -20.5q221 -74 317.5 -172.5t96.5 -286.5q0 -205 -156 -340q-154 -133 -381 -133h-6 q-205 0 -329.5 96t-210.5 289l-29 67l-260 590q-68 158 -215.5 254.5t-325.5 96.5q-244 0 -418 -174.5t-174 -418t174 -417.5t418 -174q168 0 307.5 88t214.5 231l105 -241q-113 -139 -276.5 -219t-350.5 -80q-336 0 -573.5 237.5t-237.5 573.5z" />
<glyph unicode="m" horiz-adv-x="2461" d="M0 -199v1837h379l18 -16h1690l18 16h357v-1843h-351v15h-1751v-9h-360zM360 72v-164h1751v151l-706 531l-162 -133l-176 143zM360 195l629 469l-629 516v-985zM530 1507l713 -610l711 610h-1424zM1483 653l628 -471v992z" />
<glyph unicode="n" d="M0 1079l647 662v-252l617 -567l383 94l-400 -426l801 -897l-909 803l-385 -394l61 347l-522 647z" />
<glyph unicode="o" horiz-adv-x="2217" d="M-2 381l2 35v9q0 125 51 231q53 110 137 181.5t188.5 129t207 88t190.5 53t139 27.5l54 6v-252q-117 -8 -215.5 -41t-160 -76t-108.5 -94t-71.5 -98.5t-39 -88t-16.5 -63.5l-4 -25q-6 -31 -6 -61q0 -45 14 -86q25 -70 78.5 -119t121 -92t139 -67.5t131 -45t96.5 -26.5 l39 -6v-211q-199 20 -361 71.5t-260 117t-170 139t-104.5 145t-51 127t-20.5 92.5zM1044 -307v1847l291 201v-1888zM1403 903h2h10q78 -2 158 -31q86 -33 131 -63l43 -33l-170 -69l641 -160v502l-219 -125q-82 88 -231.5 141t-258.5 63l-106 11v-236z" />
<glyph unicode="q" horiz-adv-x="1820" d="M0 817q0 250 123 463t332 338t456 125q377 0 645.5 -270.5t268.5 -653.5q0 -244 -117 -452.5t-315 -333.5q2 -4 8 -14.5t24.5 -33t43 -45t67.5 -45t92 -34.5v-156q-74 -14 -137 -14q-102 0 -174 37q-115 59 -187 192q-94 -26 -207 -26h-8q-246 0 -456.5 124.5 t-331.5 335.5t-123 463h-4zM446 698l7 -2q0 -238 137 -407.5t330 -169.5q53 0 106 16q-4 6 -12 18.5t-30.5 39t-49.5 49t-63.5 41t-75.5 20.5v180q20 2 41 2q244 0 415 -184q129 166 129 397v238q0 238 -137 407.5t-329.5 169.5t-330 -169.5t-137.5 -407.5v-238z" />
<glyph unicode="s" horiz-adv-x="2359" d="M0 453q0 33 8 90t21 63q12 -6 22 -67.5t10 -87.5q0 -29 -10 -88.5t-22 -65.5q-27 14 -27 152zM129 455l2 -2q0 51 10.5 151.5t12.5 124.5q0 12 12 12q8 0 12 -12q25 -264 25 -276q0 -49 -12.5 -145.5t-14.5 -121.5q-4 -14 -12 -14q-12 0 -12 14q-2 23 -12.5 121.5 t-10.5 147.5zM297 453q0 49 10 151.5t10 112.5q0 18 15 18q16 0 16 -18q23 -231 23 -262t-23 -279q0 -16 -16 -16q-14 0 -15 16q0 14 -10 120.5t-10 160.5v-4zM485 453q0 78 4.5 166t8.5 194.5t8 167.5q0 20 18 20q20 0 21 -20q2 -33 12 -229.5t10 -298.5q0 -53 -10 -158 t-10 -119q0 -20 -21 -20q-18 0 -18 20q-18 270 -19 277h-4zM676 455l2 -2q0 113 6 327.5t8 263.5q4 25 24.5 25t24.5 -25q2 -66 10.5 -272.5t8.5 -316.5q0 -51 -8.5 -147.5t-10.5 -125.5q-4 -25 -24.5 -24.5t-24.5 24.5q0 23 -8 121t-8 152zM872 453q0 82 2.5 174t6.5 204.5 t6 174.5q4 31 28.5 30.5t28.5 -30.5q2 -61 6 -174t6 -205t2 -174q0 -4 -12 -269v2q-4 -31 -28.5 -30.5t-28.5 28.5q-12 264 -12 269h-5zM1067 451q0 6 12 718q4 37 33 37t33 -37q12 -713 12 -718q0 -2 -12 -261q-4 -35 -33 -34.5t-33 34.5q-12 259 -12 261zM1231 885v2 q0 170 2 319q-2 20 26.5 37t67.5 25t72 12t51 4q199 0 346.5 -149.5t163.5 -366.5q57 27 113 27q119 0 204.5 -94.5t85.5 -227.5t-86 -227t-204 -94h-805q-12 0 -22.5 12t-10.5 26q0 113 -2 320t-2 375z" />
<glyph unicode="t" horiz-adv-x="1261" d="M0 901v291q123 41 207 113q84 68 137 176q53 104 72 260h293v-518h485v-322h-485v-524q0 -176 18 -230q18 -49 70 -79q70 -41 155 -41q158 0 310 100v-322q-129 -63 -238 -88q-102 -24 -220 -24h-9q-139 0 -250 35q-113 39 -183 102q-74 63 -106 139q-29 70 -29 215v717 h-227z" />
<glyph unicode="v" horiz-adv-x="2070" d="M-4 18h4v1389q0 135 88 235.5t221 100.5h1428q143 0 239.5 -78t96.5 -219v-121q-152 29 -228 41q-109 14 -110 14q-20 6 -61.5 20.5t-70 23t-67.5 8.5q-127 0 -270 -97q-70 -6 -197 -14t-229.5 -18.5t-196.5 -28.5h-4l-2 -2h-8l-2 -2h-2q-147 -29 -179 -53 q-37 -31 -40 -146v-338l-7 -37l1078 -26l163 55q-90 -162 -143 -270l-217 -97l-831 -14q-6 -6 -20.5 -8t-22.5 -10q8 -53 14 -80q25 -106 229 -121q422 -27 686 -27q78 0 246 41t260 41q133 0 227 -59v-111q0 -317 -315 -317h-1481q-125 0 -200.5 98t-75.5 227zM1413 1136.5 q0 28.5 20.5 51t49 22.5t51 -22.5t22.5 -51t-22.5 -49t-51 -20.5t-49 20.5t-20.5 49z" />
<glyph unicode="w" d="M0 716.5q0 278.5 137 514t372.5 373t514.5 137.5t514.5 -137.5t372.5 -373t137 -514t-137 -514t-372.5 -372.5t-514.5 -137t-514.5 137t-372.5 372.5t-137 514zM80 717q0 -276 147.5 -505.5t386.5 -344.5l-450 1235q-82 -182 -82 -385h-2zM233 1235h62q98 0 252 12 q25 2 37 -16.5t4 -39t-33 -22.5l-109 -10l345 -1022l206 619l-147 403q-49 6 -98 10q-25 2 -33 22.5t4 39t37 16.5l248 -12q100 0 252 12q25 2 37 -16.5t3.5 -39t-32.5 -22.5l-107 -10l340 -1016l94 316q74 240 74 305q0 131 -80 262q-4 6 -26.5 43t-28.5 49t-18.5 39 t-16.5 49.5t-4 42.5q0 68 47 119t115 51q2 0 6 -2t6 -2q-268 248 -639 248q-244 0 -452.5 -114.5t-337.5 -311.5zM758 -190q127 -37 266 -37q164 0 313 53l-6 12l-291 797zM1499 -100q215 125 342 344t127 475q0 246 -115 452q6 -43 7 -96q0 -129 -72 -338z" />
<glyph unicode="y" horiz-adv-x="1517" d="M-2 532l2 5v-27q0 -88 12 -141q10 -37 39 -53.5t60 -6.5l417 129q45 14 64 54q10 20 10 40.5t-10 38.5q-18 39 -66 54l-417 168q-29 6 -57.5 -16.5t-35.5 -63.5q-16 -74 -18 -181zM168 1546q0 18 12 37q25 35 78 55q166 63 350 95h10q92 0 101 -78q51 -641 51 -805 q0 -68 -55 -82q-12 -4 -25 -4q-43 0 -76 51q-303 475 -436 698q-10 16 -10 33zM299 -98q0 23 20 47v-2l285 340q39 43 78 43q16 0 33 -6q51 -23 51 -93q0 -10 -2 -20v-453q-4 -29 -35 -45q-18 -10 -37 -10q-16 0 -33 6q-74 12 -174 53t-149 78q-37 29 -37 62zM909 684 q0 35 31 68l266 366q14 16 41 17q6 0 15 -2q35 -4 59 -37q51 -53 108.5 -145.5t75.5 -151.5q6 -16 6 -31q0 -18 -8 -33q-16 -27 -47 -33l-428 -108q-16 -4 -33 -4q-47 0 -73 45v2q-12 25 -13 47zM928 332q0 -33 26 -66l234 -389q14 -18 49 -18h6q39 2 68 30q55 49 114.5 129 t85.5 144q8 23 9 43q0 14 -7 26q-10 29 -38 39l-420 144q-20 8 -39 8q-43 0 -68 -39l-2 -2q-18 -25 -18 -49z" />
<glyph unicode="{" horiz-adv-x="2633" d="M-8 1030l8 12q356 68 426 146q55 61 92 186q37 -47 47 -100t2 -82l-10 -27q-12 -27 -22.5 -43t-16.5 -28.5t-20.5 -22.5t-20.5 -18.5t-32.5 -22.5t-43.5 -29q-72 -55 -69.5 -128.5t63.5 -112.5q53 -33 104.5 12t108.5 160q25 51 39.5 135t41 149.5t95.5 120.5 q41 33 94.5 39t102.5 2t106.5 0t123 49.5t137.5 133.5q10 12 28.5 32.5t77.5 59.5t120.5 57.5t152 -2t176.5 -92.5q-98 43 -184.5 43t-139.5 -31t-90 -67.5t-53 -67.5l-15 -31q-31 -76 -59.5 -127t-49 -79.5t-51 -47t-49 -24.5t-65.5 -18.5t-78 -20.5q-88 -27 -102 -111 q-12 -74 45 -108q66 -37 168 28q76 49 123 102.5t63 90.5t57 82t107 76q88 43 168 59t170 16t137 9q403 66 504 233q98 162 100 266q35 -119 24.5 -213t-55.5 -165.5t-90 -116.5t-84 -70l-37 -23q-158 -82 -264 -114.5t-171.5 -42.5t-127.5 -45q-211 -113 -106 -318 q43 -84 127 -92t160 62q12 10 28.5 28.5t47 80t32.5 124.5q41 -115 33 -199t-43 -131l-31 -45q-74 -78 -125 -110.5t-129 -38.5t-184 30q-176 43 -246 43t-127 -36q-57 -33 -88 -88.5t-4 -100.5q29 -51 70 -57t131 45q80 47 135 61.5t139 18.5q178 4 285 -78 q76 -49 151 -117q-82 49 -161.5 63.5t-135 -2t-100.5 -37t-66 -44.5l-20 -21q-92 -104 -155.5 -147t-108.5 -43t-121 31q-20 8 -81.5 34.5t-86.5 32.5v225q0 248 -188 381q-121 82 -275 82q-156 0 -274 -80q-41 59 -105 68v154q0 63 -45 108t-108 45h-37zM260 -113v332 q0 133 39 203q82 145 274 145q141 0 227.5 -90t86.5 -225v-277h-414v-137q0 -98 102 -98q92 0 103 100h209q0 -127 -84 -215q-88 -88 -228 -88q-193 0 -274 146q-39 70 -39 202zM471 135h205v115q0 115 -102.5 115t-102.5 -115v-115zM1008 -272q23 74 22 145q0 23 -6 41 q49 -8 70 -10q127 -12 174 -94q4 -6 10 -18.5t14 -47.5t-2 -63q-63 49 -135 61t-111 -2z" />
<glyph unicode="|" horiz-adv-x="1742" d="M0 -53l2 -2q6 63 25 135q23 92 147.5 718.5t144.5 717.5q25 106 49.5 149t80 61.5t178.5 18.5h493q121 0 276.5 -2t237.5 -2q84 0 103 -92q20 -98 -47 -189q-61 -82 -166 -82h-822l-102 -477l721 -6q90 0 110.5 -92t-42.5 -172q-55 -68 -144 -68h-737l-98 -508h884 q131 0 158 -90t-34.5 -180t-139.5 -90h-1133q-61 0 -98 34.5t-45 94t-2 123.5z" />
<glyph unicode="}" horiz-adv-x="1763" d="M0 283q0 90 65.5 155.5t157.5 65.5q90 0 155.5 -65.5t65.5 -155.5q0 -94 -69 -160q133 -152 334 -152q141 0 237 84q96 86 96 217q0 80 -51 158q-47 78 -123 131q-70 47 -235 117q-154 61 -250 121q-86 55 -150 131q-61 74 -94 151q-29 80 -28 162q0 207 165 352 q168 145 404 146q158 0 317 -68q135 -57 232 -164q76 -66 76 -163q0 -92 -65.5 -158t-156.5 -66q-92 0 -157.5 65.5t-65.5 158.5q0 43 21 90q-66 33 -181 32q-141 0 -229 -63.5t-88 -163.5q0 -88 78 -156q82 -68 262 -145q188 -82 289 -149q104 -70 168 -152q68 -84 98 -174 q0 -2 2 -6t2 -6q-154 -127 -154 -324q0 -109 58 -213q-23 -27 -49 -55q-178 -168 -422 -168t-426.5 131t-284.5 397l6 2q-10 31 -10 60zM1255 129q0 -106 74 -182t180.5 -76t180 76t73.5 182q0 104 -73.5 180t-180 76t-180.5 -76t-74 -180z" />
<glyph unicode="~" horiz-adv-x="1359" d="M-2 1708l2 2h205l16 -248h21l10 6q162 272 504 273q266 0 436 -203t170 -520q0 -190 -55.5 -342t-149.5 -242t-206.5 -137t-239.5 -47q-141 0 -258 59.5t-179 163.5l-4 6h-22l-6 -14v-774h-232v1558q0 180 -12 459zM244 864q0 -63 12 -112q39 -143 151.5 -231.5 t258.5 -88.5q207 0 331.5 158t124.5 420q0 244 -125 397.5t-321 153.5q-147 0 -262 -94.5t-152 -241.5q-18 -68 -18 -109v-252z" />
<glyph unicode="&#xa3;" horiz-adv-x="1368" d="M-4 1049h6q-23 309 258 516q129 96 297 143q160 47 358.5 22.5t370.5 -120.5q-4 -82 0 -156q12 -244 -20 -313q-18 2 -107 28q-74 23 -135 33q-63 12 -125 17q-143 12 -203 -78q16 -90 78 -135q61 -43 168 -76q100 -29 141 -53q231 -143 285 -449v-174q0 -166 -92 -293 t-244 -190q-215 -90 -501.5 -80t-491.5 123q6 84 0 161q-6 86 -4 166q4 88 24 142q37 -6 99 -23q109 -31 151 -39q338 -74 363 82q6 45 -22.5 84t-71.5 62q-57 29 -99 45q-59 25 -76 34q-90 47 -120 66q-117 70 -164 139q-111 158 -123 316z" />
<glyph unicode="&#xad;" horiz-adv-x="1925" d="M0 1513q-2 23 12.5 43.5t28.5 35t49 32.5t55.5 26.5t67.5 29t72 30.5q111 45 198.5 33t110.5 -72q51 -137 211 -655t237 -742q549 180 668 215q33 12 78 8.5t67 -46.5q47 -96 68 -203t2 -154q-39 -31 -123 -65.5t-155.5 -59t-184 -59.5t-151.5 -47q-20 -6 -77.5 -26.5 t-109 -39t-119 -39t-125 -37t-110.5 -24.5t-92 -8t-53 18q-37 37 -66 106.5t-59.5 178t-38.5 135.5q-86 256 -231.5 694.5t-213.5 640.5q-12 27 -14 49z" />
<glyph unicode="&#xc7;" horiz-adv-x="2607" d="M0 786v105q0 78 178 133t432 55t432.5 -55t178.5 -133v-105q-2 -78 -180.5 -133t-430.5 -55t-430 55t-180 133zM588 1284v55q4 39 131 68t305 29t305 -29t131 -68h2v-55h-2q-4 -41 -131 -69.5t-305 -28.5t-305 28.5t-131 69.5zM1020 272v131q8 115 239.5 195t555 80 t555 -80t239.5 -195v-131q-6 -113 -237.5 -192.5t-555 -79.5t-555 80t-239.5 194zM1487 971v86q4 59 155.5 100t360.5 41t360.5 -41t155.5 -100v-86q0 -59 -151.5 -102.5t-364.5 -43.5t-364.5 43.5t-151.5 102.5z" />
<glyph unicode="&#xc9;" horiz-adv-x="2293" d="M-2 1440l2 2q0 41 26.5 67.5t67.5 26.5h481q33 0 60 -20.5t35 -53.5l49 -200h1380l15 43q20 66 88 65q18 0 26 -4q31 -8 49.5 -32.5t18.5 -55.5q0 -10 -4 -27l-242 -805q-8 -31 -32.5 -49t-55.5 -18h-1145q-33 0 -59.5 20.5t-34.5 51.5l-221 897h-408q-39 0 -67.5 26.5 t-28.5 65.5zM762 1077l127 -508h1001l4 19l148 489h-1280zM848 86q0 78 57.5 133t135 55t133 -55t55.5 -133t-55.5 -133t-133 -55t-135 55t-57.5 133zM981 918h340v-189h-299zM1483 729l2 189h332l-50 -189h-284zM1559 86q0 78 57 133t135 55t133 -55t55 -133t-55 -133 t-133 -55t-135 55t-57 133z" />
<glyph unicode="&#xd1;" horiz-adv-x="1892" d="M0 -102v682l238 264h174v-131h-115l-164 -183v-501h1628v501l-164 183h-114v131h174l235 -264v-682h-1892zM412 551v676l309 309h762v-985h-1071zM535 676h825v737h-516v-309h-309v-428z" />
<glyph unicode="&#xd6;" horiz-adv-x="1466" d="M0 279q0 129 57 200q47 63 152 92q-33 82 -33 121q0 68 72 144q76 72 141 71q35 0 82 -18q-98 281 -141 426q-49 166 -49 235q0 98 49 154q51 57 137 57q147 0 354 -604l35 -100q12 31 25 67q205 598 368 598q82 0 129 -55q49 -55 49 -143q0 -57 -49 -232 q-43 -150 -135 -409q117 -29 168 -111q55 -88 55 -272q0 -365 -217 -596q-221 -231 -561 -232q-135 0 -260 49q-121 43 -219 136q-104 98 -156 202q-53 111 -53 220zM133 289q0 -51 29 -121q27 -66 80 -137q84 -109 198 -166q117 -57 265 -58q264 0 444 199q178 197 178 498 q0 94 -12 145q-10 45 -39 70q-55 47 -217 82q-162 37 -344 37q-45 0 -58 -13q-14 -6 -14 -41q0 -84 94 -118q102 -43 338 -43h58q33 0 47 -23q16 -16 22 -63q-35 -35 -112 -64q-74 -27 -109 -53q-82 -59 -131 -141q-47 -80 -47 -152q0 -43 20 -104q23 -68 23 -89v-12l-8 -31 q-90 6 -131 84q-35 66 -39 168q-6 -2 -25 -2h-22q2 -10 2 -24q0 -61 -47.5 -104.5t-110.5 -43.5q-96 0 -195 92q-98 94 -98 185q0 16 6 33q2 14 33 45q51 -63 70 -88q86 -121 155 -121q18 0 35 12q12 12 12 20q0 16 -24 60q-16 31 -76 108q-57 74 -92 103q-31 29 -45 28 q-39 0 -76 -44.5t-37 -112.5zM317 680q0 -27 33 -92q29 -55 92 -139q63 -82 115 -127q49 -41 74 -41q14 0 28 14q14 16 15 33q0 25 -37 118q-43 104 -94 189q-45 72 -80 100q-33 31 -64 31q-23 0 -51 -31q-31 -30 -31 -55zM410 1565q0 -70 49 -219q45 -145 135 -390 q20 12 57 13q2 0 14.5 -2t22.5 -2q8 0 53 -4l-141 409q-57 164 -90 213q-27 43 -53 43q-18 0 -31 -16q-14 -18 -14 -47zM750 520q18 -47 38 -102q41 47 82 78q-10 2 -30.5 6t-30.5 6q-41 8 -59 14v-2zM965 938l137 -25q92 254 141 408q51 166 51 197q0 33 -14 51 q-8 14 -31 14q-29 0 -63 -55q-39 -59 -88 -207z" />
<glyph unicode="&#xdc;" d="M0 -102v1638q0 84 61.5 145.5t145.5 61.5h1638q84 0 145.5 -61.5t61.5 -145.5v-1638q0 -84 -61.5 -145.5t-145.5 -61.5h-1638q-84 0 -145.5 61.5t-61.5 145.5zM410 717q0 -254 180 -434.5t434 -180.5t434 180.5t180 434.5t-180 434t-434 180t-434 -180t-180 -434z M614 717q0 168 121 288.5t289 120.5t289 -120.5t121 -288.5t-121 -289t-289 -121t-289 121t-121 289z" />
<glyph unicode="&#xe0;" horiz-adv-x="1263" d="M0 8q0 156 117 230q59 39 110 59q233 100 250 111q-43 63 -110 139q-104 123 -123 145q-223 270 -193 506q14 113 86 186q27 29 86 66q76 43 92 51q10 4 47 20.5t62 26.5l96 43l142 62q119 51 176 82q41 23 51 -13q0 -23 -55 -51q-125 -82 -132 -233q-2 -59 10.5 -118.5 t27 -96.5t53 -94.5t55 -78t72 -82t65.5 -73.5q12 -14 59.5 -67.5t68 -78t57 -78t53 -94t33 -100t16.5 -121.5q0 -78 -27 -139q-25 -66 -59.5 -106.5t-98.5 -81.5q-72 -43 -108 -62q-47 -25 -125 -55q-33 -12 -74 -30.5t-47 -20.5l-182 -80l-74 -37q-66 -33 -102 -43 q-174 -43 -272.5 49t-98.5 252z" />
<glyph unicode="&#xe1;" horiz-adv-x="2306" d="M4 848q20 326 154 545q100 164 196.5 233.5t284.5 102.5q61 10 116.5 12t104.5 -8.5t90 -24.5t80 -41t69.5 -53.5t61.5 -65.5t55.5 -71.5t49 -79.5t43 -82t43.5 -84q14 -29 28.5 -61.5t30.5 -73.5t27 -64q16 98 116.5 385t139.5 297q186 43 297 0q8 -4 18 -16t14 -17 q-2 -37 -12 -79.5t-18 -67.5t-26.5 -76t-24.5 -63l-328 -899q-14 -70 39 -184.5t139 -190.5t152 -45q20 10 36.5 43t28.5 43q37 31 145.5 33t137.5 -39q33 -59 22.5 -129t-63.5 -135.5t-123 -116.5t-152 -76t-151 -10q-59 12 -110.5 38.5t-84.5 53t-69.5 76t-57 80t-55.5 92 t-53 90.5q-8 -4 -13 -8q-49 -119 -165.5 -219.5t-260 -153.5t-307.5 -41t-297 110q-174 127 -268 418t-76 615zM317 874q-27 -221 18.5 -432t149.5 -288q57 -43 114.5 -63.5t107 -25t100.5 20.5t88 43t84 71.5t73.5 82t67.5 94t57.5 88t51.5 86.5q10 18 16 29 q-78 330 -131 456q-150 354 -414 318q-115 -16 -166 -45t-102 -101q-84 -113 -110 -334h-5z" />
<glyph unicode="&#xe2;" horiz-adv-x="2207" d="M-2 885h2q0 250 190 430q119 113 275 153.5t313.5 -4.5t282.5 -174q90 -94 129 -219t30.5 -237.5t-49.5 -210.5q-39 -84 -6 -190.5t82 -182.5t104.5 -141.5t55.5 -67.5l-23 18q-20 20 -44.5 43t-63.5 53.5t-78 55.5t-88 51.5t-92 38.5t-92 16.5t-88 -14.5 q-96 -39 -213 -41t-240 45t-211 142q-176 186 -176 436zM270.5 925.5q-18.5 -141.5 69.5 -256t229.5 -133t254 69.5t131 229.5t-67.5 254t-227.5 131t-256 -67.5t-133 -227.5zM1249 1528q43 121 151.5 180t231.5 18q119 -37 178.5 -147.5t18.5 -237.5q-49 -147 -234 -213 q-63 -23 -114 -69.5t-71.5 -77.5t-47.5 -84q45 193 -49 326q-113 164 -64 305zM1325 514h2q4 188 129 317.5t311 129.5q182 0 311.5 -127t129.5 -322q0 -225 -226 -399q-78 -59 -127 -145.5t-63 -139.5t-27 -137q-8 82 -20 137t-61.5 143t-133.5 152q-227 170 -225 391z M1405 1479v2q-23 -55 2 -112.5t80 -80t110.5 0t77.5 77.5q23 57 0.5 112.5t-78 78t-113 0t-79.5 -77.5zM1542 426q39 -94 135 -135q94 -39 188.5 2t133.5 135t0 188.5t-133 135.5q-94 39 -188.5 0t-133.5 -134q-39 -96 -2 -190v-2z" />
<glyph unicode="&#xe3;" horiz-adv-x="2045" d="M0 -221q0 104 125 219t252 182l31 -45q-90 -66 -186.5 -170t-121.5 -184q178 55 543 776q133 268 211 535q-68 219 -68 413q0 236 97 236q47 0 69.5 -4t43 -26.5t20.5 -70.5q0 -31 -6 -57l-56 2q-4 53 -34 84q-25 -41 -25 -141q0 -78 18 -193q6 37 18.5 111t20.5 110 l54 -6q-4 -311 -29 -446q74 -219 178.5 -356.5t292.5 -243.5q139 14 238 14q365 0 364 -143q0 -23 -10 -49l-6 2q-10 -86 -138 -86q-213 0 -491 147q-451 -45 -797 -168q-301 -526 -481 -526q-14 0 -28.5 4t-27 10t-28.5 14.5t-25 14.5q-16 16 -16 45zM651 301 q274 111 611 174q-211 150 -336 428q-74 -248 -275 -602zM1647 403q184 -72 290 -71q31 0 45 6q0 66 -296 65h-39z" />
<glyph unicode="&#xe4;" horiz-adv-x="1792" d="M0 578q0 143 43 272t100.5 211t133 153.5t116.5 98t78 49.5l61 30.5t63.5 33t59.5 35t72 50.5q86 70 102 232q150 -180 218 -225q51 -35 151 -80t152 -76q39 -23 73.5 -49.5t110.5 -100t129 -155.5t96 -215t43 -281q0 -381 -262 -624.5t-629 -243.5q-238 0 -444.5 114.5 t-333.5 319.5t-127 453zM389 268q-4 -129 86 -190q63 -43 193 -43q84 0 200.5 61.5t215 120.5t145.5 57t159.5 -114.5t145.5 -114.5q41 -2 69.5 18.5t65.5 73.5q68 100 68 240q0 59 -31 112.5t-96 53.5q-45 0 -188.5 -96.5t-192.5 -98.5q-45 0 -125 57.5t-182.5 115 t-202.5 57.5q-133 -2 -229.5 -92.5t-98.5 -209.5zM809 -100q-25 -20 0 -41q94 -86 338 -64q47 4 98 24.5t76 37t35 24.5t8 33q-6 25 -29 6q-84 -66 -254 -65q-154 0 -225 57q-6 4 -16.5 4t-28.5 -14zM993 6q14 -16 58 23q4 2 16 12t16 14t16.5 10.5t20.5 10.5t24.5 4t33.5 2 q33 0 53 -10.5t26.5 -16.5t16.5 -26.5t16 -24.5t17 2q25 14 14 41q-18 53 -45 70q-25 18 -88 18q-53 0 -84 -12q-35 -14 -90 -66q-31 -25 -15 -51h-6z" />
<glyph unicode="&#xe5;" horiz-adv-x="2004" d="M0 180q23 31 66 53.5t100 41t84 32.5q39 0 69.5 -10t69.5 -30.5t51 -26.5q96 -43 533 -244q39 -8 73.5 0t82 36.5t49.5 30.5q41 18 157.5 71.5t180.5 82.5q8 4 85.5 43t124.5 49q27 4 58 -2t49 -16t47 -26.5t37 -22.5t32.5 -12.5t39 -16.5t22.5 -23q6 -8 8 -28 q-20 -27 -63 -49.5t-104.5 -45t-82.5 -32.5q-88 -41 -264 -127t-264 -127q-14 -6 -43 -24.5t-49.5 -27t-53 -22.5t-57 -14t-61.5 4l-541 252q-12 6 -65.5 28.5t-106.5 45t-110.5 49t-96.5 49t-45 35.5q-8 8 -8 26zM0 729q23 31 66 51.5t102 41t86 30.5q39 0 69.5 -10.5 t71.5 -30.5t54 -29q86 -39 260 -118.5t262 -120.5q39 -10 75.5 -2t79.5 34.5t52 30.5q139 66 327 148q23 10 66 34.5t80 41t73 22.5q33 6 66 -2t78 -35t47 -27q10 -6 32.5 -14t37 -16t24.5 -23q6 -10 8 -28q-20 -29 -65 -53.5t-108.5 -47t-84.5 -33.5q-98 -47 -278.5 -133 t-251.5 -121q-14 -6 -53 -28.5t-59.5 -30.5t-68 -20.5t-73.5 0.5q-438 207 -533 249q-12 6 -90 39t-143.5 61.5t-127 61.5t-69.5 47q-8 8 -8 29zM0 1276q20 31 65.5 55.5t109 47t83.5 32.5l713 332q61 0 110 -14.5t117 -53.5t82 -45q80 -37 239.5 -112.5t239.5 -112.5 q8 -4 76 -30.5t113 -49t55 -41.5q6 -8 8 -27q-18 -27 -53 -47t-90.5 -38.5t-71.5 -28.5q-96 -45 -286.5 -137.5t-284.5 -137.5q-12 -6 -41 -22.5t-47.5 -26.5t-51 -22.5t-55 -12.5t-57.5 2q-502 233 -524 244q-8 4 -129 57.5t-209 96.5t-99 61q-8 8 -8 27z" />
<glyph unicode="&#xe7;" horiz-adv-x="2326" d="M4 1065q-16 440 25 553q8 18 20 32.5t28.5 27t29 20.5t37 20.5t34.5 18.5q279 0 791 4t673 4h193l113 -2l116 -6l93 -13l67 -20q33 -18 55.5 -49t35 -61.5t16.5 -82t4 -86t-2 -102.5t-2 -102q0 -424 -47.5 -670t-196.5 -436q-143 -180 -338 -287t-395.5 -129.5t-409.5 23 t-383 152t-309 272t-197 372.5q-31 106 -47 547h-4zM479 1069q-53 -57 31 -184t213 -254l82 -82t110.5 -106.5t96 -73.5t116.5 -60q23 -6 47.5 -6t41 2t41 14.5t32.5 16.5t33 24.5t25 22.5t24 23l6 6q18 18 125 114.5t176.5 166t139 161.5t71.5 156q-31 82 -78 114.5 t-104 18t-114.5 -53t-121 -98t-114.5 -115t-102.5 -104.5t-75.5 -67q-55 33 -149.5 123t-168.5 167.5t-151.5 131t-112.5 30.5q-51 -31 -115 -84z" />
<glyph unicode="&#xe8;" horiz-adv-x="2043" d="M0 719q0 209 82 397q162 381 543 543q188 82 397 82t397 -82q377 -160 543 -543q82 -195 82 -397.5t-82 -396.5q-166 -385 -543 -547q-188 -82 -397 -82t-397 82q-381 164 -543 547q-82 188 -82 397zM160 719q0 -289 172 -516q170 -223 444 -318v164q0 123 82 178 q-41 2 -96 15q-104 18 -178 65q-186 113 -187 408q0 154 103 262q-47 121 10 262h41q20 0 51 -10q80 -25 178 -90q125 33 246 32.5t248 -32.5q80 53 149 82q66 25 95 20l24 -2q55 -141 10 -262q102 -109 103 -262q0 -229 -113 -346q-61 -66 -162 -103q-84 -31 -186 -39 q84 -59 84 -178v-164q264 94 436 322q168 225 168 512q0 174 -67 336q-66 156 -185 274q-115 115 -274 182q-164 70 -334 70q-168 0 -336 -70q-154 -66 -274 -182q-115 -119 -185 -274q-67 -162 -67 -336z" />
<glyph unicode="&#xe9;" horiz-adv-x="1773" d="M0 1446q0 123 260 209t627 86q369 0 629 -86t260 -209q0 -25 -148 -901q-18 -94 -227 -182.5t-512 -88.5t-512 88.5t-225 182.5q-150 848 -150 901h-2zM219 256v8q0 35 31 35q12 0 24 -10q96 -76 250 -119t258 -47l105 -6q16 0 45 2t108.5 10t153.5 26.5t162 51.5t149 84 l23 10q33 0 33 -35q0 -4 -2 -8q-45 -248 -62 -330q-23 -100 -197 -167.5t-409.5 -67.5t-409.5 67.5t-194 167.5q-39 195 -64 330zM319 1477q0 -49 168 -86t402 -37q236 0 403.5 34.5t167.5 84.5q0 51 -168 87.5t-403.5 36.5t-401 -34.5t-165.5 -85.5h-3zM604 753.5 q0 -116.5 84 -200.5t201 -84t201 84t84 200.5t-84 200.5t-201 84t-201 -84t-84 -200.5zM745 753.5q0 -57.5 41 -100.5t100.5 -43t100.5 43t41 100.5t-41 100.5t-100.5 43t-100.5 -43t-41 -100.5z" />
<glyph unicode="&#xea;" horiz-adv-x="2590" d="M0 283v6h49q-14 29 -14 69q0 133 94 381t180 377q66 100 172 101q92 0 92 -70q0 -106 -147 -408h168q41 127 108 258q70 139 150 186.5t238 47.5q59 0 116.5 -28.5t57.5 -82t-27 -86.5t-78 -47t-90 -18t-94 -4h-19q-31 -45 -57 -119q37 6 76 6q131 0 131 -78 q0 -18 -6 -37q-33 -121 -180 -121q-47 0 -103 11q-33 -98 -43 -150q106 20 157.5 20.5t88.5 -24t37 -74.5q0 -70 -49.5 -116.5t-110.5 -63t-131 -16.5q-133 0 -197 84q-41 49 -41 127q0 47 7 92q16 102 57 229h-168q-18 -39 -53 -114.5t-52 -112.5h-2l-14 -29q45 4 70 4 q121 0 121 -82q0 -104 -80 -151t-191 -47q-133 0 -174 80h-49zM1102 449q0 78 32.5 194.5t69.5 202.5q39 92 74 151.5t88 116.5t125 84t166 29q102 0 178 -41t76 -133q0 -78 -43 -141.5t-117 -63.5q-106 0 -106 67q0 12 8 37t8 39q0 27 -45 27q-35 0 -67.5 -28.5t-59.5 -90 t-37 -84t-31 -80.5q-66 -172 -65 -243q0 -59 57 -60q51 0 90 51.5t53 108.5q-86 4 -86 72q0 76 57.5 110.5t135.5 34.5q106 0 133 -72q8 -23 8 -53q0 -102 -59 -217t-141 -178q-109 -84 -246 -84q-139 0 -205 84q-49 59 -49 160h-2zM1776 289h86q-37 53 -37 135 q0 162 100 418q39 96 67.5 151.5t76 114.5t117 86t161.5 27q246 0 246 -236q0 -102 -45 -246q-31 -104 -84 -225q-76 -158 -150 -223q-94 -84 -243 -84q-147 0 -207 84h-86zM2071 512h6q-12 -72 45 -72q47 0 88 78h-4q35 74 92 238t57 211q0 49 -43 49q-41 0 -67 -33 q-37 -53 -107 -244q-51 -137 -67 -225v-2z" />
<glyph unicode="&#xeb;" d="M0 716.5q0 278.5 137 514t372.5 373t514.5 137.5t514.5 -137.5t372.5 -373t137 -514t-137 -514t-372.5 -372.5t-514.5 -137t-514.5 137t-372.5 372.5t-137 514zM426 63q0 -53 53 -53h361q57 0 57 53v99q0 53 -57 53h-60v942h60q57 0 57 53v99q0 53 -57 53h-361 q-53 0 -53 -53v-99q0 -53 53 -53h64v-942h-64q-53 0 -53 -53v-99zM993 55q0 -49 49 -49h121q45 0 45 49v527q0 211 162 211q86 0 86 -105v-633q0 -49 45 -49h125q43 0 43 49v682q0 250 -225 250q-137 0 -250 -131l-14 74q-8 45 -50 45h-88q-49 0 -49 -51v-869z" />
<glyph unicode="&#xec;" horiz-adv-x="1605" d="M0 -307v854l156 -2l-6 -686h1026v684h161v-850h-1337zM252 -29v170h803v-170h-803zM254 274l16 175l805 -78l-16 -174zM297 629l47 168l778 -219l-49 -168zM442 1040l90 150l693 -418l-92 -149zM784 1460l142 103l471 -658l-144 -102zM1300 1712l173 29l133 -797 l-172 -29z" />
<glyph unicode="&#xed;" horiz-adv-x="1878" d="M0 1741h330l403 -617q100 -154 209 -348q98 174 223 363l398 602h315l-817 -1180v-868h-273v868z" />
<glyph unicode="&#xee;" horiz-adv-x="2455" d="M0 686v70q0 231 172 403t440 172q279 0 506 -229q43 -41 111 -127l196 -258q80 -106 107 -133q152 -152 301 -152q121 0 197 82q68 68 77 174q2 10 2 29q0 45 -12 84q-18 63 -67 117q0 2 -2 2q-78 82 -195 81q-160 0 -301 -151l-174 227q-12 16 -21 27q113 123 232 176 t274 53q254 0 438 -172h3l2 -2q170 -170 170 -440q0 -61 -11 -129q-33 -182 -161 -314q-125 -127 -308 -161q-68 -10 -127 -11q-287 0 -508 224q-47 47 -114 137l-197 254q-80 106 -106 133q-152 152 -306 152q-45 0 -81 -13q-59 -16 -113 -69q-59 -66 -74 -146 q-6 -29 -6 -57q0 -117 76 -199l4 -4q80 -82 199 -82q162 0 301 154l172 -226l18 -24q-117 -125 -235.5 -178.5t-266.5 -53.5q-268 0 -442 170v3q-129 129 -160 313q-10 51 -10 96v-2z" />
<glyph unicode="&#x2000;" horiz-adv-x="944" />
<glyph unicode="&#x2001;" horiz-adv-x="1888" />
<glyph unicode="&#x2002;" horiz-adv-x="944" />
<glyph unicode="&#x2003;" horiz-adv-x="1888" />
<glyph unicode="&#x2004;" horiz-adv-x="629" />
<glyph unicode="&#x2005;" horiz-adv-x="472" />
<glyph unicode="&#x2006;" horiz-adv-x="314" />
<glyph unicode="&#x2007;" horiz-adv-x="314" />
<glyph unicode="&#x2008;" horiz-adv-x="236" />
<glyph unicode="&#x2009;" horiz-adv-x="377" />
<glyph unicode="&#x200a;" horiz-adv-x="104" />
<glyph unicode="&#x2010;" horiz-adv-x="1925" d="M0 1513q-2 23 12.5 43.5t28.5 35t49 32.5t55.5 26.5t67.5 29t72 30.5q111 45 198.5 33t110.5 -72q51 -137 211 -655t237 -742q549 180 668 215q33 12 78 8.5t67 -46.5q47 -96 68 -203t2 -154q-39 -31 -123 -65.5t-155.5 -59t-184 -59.5t-151.5 -47q-20 -6 -77.5 -26.5 t-109 -39t-119 -39t-125 -37t-110.5 -24.5t-92 -8t-53 18q-37 37 -66 106.5t-59.5 178t-38.5 135.5q-86 256 -231.5 694.5t-213.5 640.5q-12 27 -14 49z" />
<glyph unicode="&#x2011;" horiz-adv-x="1925" d="M0 1513q-2 23 12.5 43.5t28.5 35t49 32.5t55.5 26.5t67.5 29t72 30.5q111 45 198.5 33t110.5 -72q51 -137 211 -655t237 -742q549 180 668 215q33 12 78 8.5t67 -46.5q47 -96 68 -203t2 -154q-39 -31 -123 -65.5t-155.5 -59t-184 -59.5t-151.5 -47q-20 -6 -77.5 -26.5 t-109 -39t-119 -39t-125 -37t-110.5 -24.5t-92 -8t-53 18q-37 37 -66 106.5t-59.5 178t-38.5 135.5q-86 256 -231.5 694.5t-213.5 640.5q-12 27 -14 49z" />
<glyph unicode="&#x2012;" horiz-adv-x="1925" d="M0 1513q-2 23 12.5 43.5t28.5 35t49 32.5t55.5 26.5t67.5 29t72 30.5q111 45 198.5 33t110.5 -72q51 -137 211 -655t237 -742q549 180 668 215q33 12 78 8.5t67 -46.5q47 -96 68 -203t2 -154q-39 -31 -123 -65.5t-155.5 -59t-184 -59.5t-151.5 -47q-20 -6 -77.5 -26.5 t-109 -39t-119 -39t-125 -37t-110.5 -24.5t-92 -8t-53 18q-37 37 -66 106.5t-59.5 178t-38.5 135.5q-86 256 -231.5 694.5t-213.5 640.5q-12 27 -14 49z" />
<glyph unicode="&#x2013;" horiz-adv-x="1014" d="M0 1513q-1 23 6.5 43.5t15 35t26 32.5t29.5 26.5t36 29t38 30.5q59 45 105 33t59 -72q27 -137 111.5 -655t125.5 -742q290 180 353 215q18 12 42 8.5t35 -46.5q25 -96 36 -203t1 -154q-20 -31 -64.5 -65.5t-82.5 -59t-97.5 -59.5t-80.5 -47q-10 -6 -40.5 -26.5t-58 -39 t-63 -39t-66 -37t-58.5 -24.5t-49 -8t-28 18q-20 37 -35 106.5t-31.5 178t-20.5 135.5q-45 256 -122 694.5t-113 640.5q-7 27 -8 49z" />
<glyph unicode="&#x2014;" horiz-adv-x="2038" d="M0 1513q-2 23 13.5 43.5t30 35t52 32.5t59 26.5t71.5 29t76 30.5q118 45 210.5 33t116.5 -72q54 -137 223.5 -655t251.5 -742q581 180 707 215q35 12 82.5 8.5t70.5 -46.5q50 -96 72.5 -203t1.5 -154q-41 -31 -130 -65.5t-164.5 -59t-194.5 -59.5t-161 -47 q-21 -6 -82 -26.5t-115.5 -39t-126 -39t-132 -37t-117 -24.5t-97.5 -8t-56 18q-39 37 -70 106.5t-63 178t-41 135.5q-91 256 -245 694.5t-226 640.5q-13 27 -15 49z" />
<glyph unicode="&#x202f;" horiz-adv-x="377" />
<glyph unicode="&#x205f;" horiz-adv-x="472" />
<glyph unicode="&#x25fc;" horiz-adv-x="1024" d="M0 0z" />
</font>
</defs>
</svg>
